<?xml version="1.0" encoding="utf-8"?>
<!-- Generator: Adobe Illustrator 27.5.0, SVG Export Plug-In . SVG Version: 6.00 Build 0)  -->
<svg version="1.1" xmlns="http://www.w3.org/2000/svg" xmlns:xlink="http://www.w3.org/1999/xlink" x="0px" y="0px"
	 viewBox="0 0 500 500" style="enable-background:new 0 0 500 500;" xml:space="preserve">
<g id="BACKGROUND">
	<rect style="fill:#FFFFFF;" width="500" height="500"/>
</g>
<g id="OBJECTS">
	<g>
		<g>
			<ellipse style="opacity:0.2;fill:#345C6E;" cx="65.787" cy="353.419" rx="39.069" ry="3.99"/>
			<g>
				<path style="fill:#D67672;" d="M89.063,272.96l0.458,2.548c-3.355,6.84-3.145,21.16-5.645,28.91s-6.327,7.875-6.327,7.875
					l-7.84,1.167l1.3-14.917l16.117-23.667L89.063,272.96z"/>
				<path style="fill:#345C6E;" d="M67.957,308.044l6.023-4.875c15.645,24,11.352,49.25,11.352,49.25H57.457
					c0,0,6.625-22.5,3.625-32.625L67.957,308.044z"/>
				<path style="fill:#D67672;" d="M87.957,352.419c0,0,4.25-4.875-3.917-6.042c-8.167-1.167-15.083,6.042-15.083,6.042H87.957z"/>
				<path style="fill:#467C90;" d="M52.875,308.044l13.088,7.352c7.713,17.852,4.287,37.023,4.287,37.023H42.375
					c0,0,6.625-22.5,3.625-32.625L52.875,308.044z"/>
				<path style="fill:#E28884;" d="M73.042,237.044l1.5,2.75c0,0,13.214,11.667,13.19,27.917c0,0-12.69,4.917-15.774-7
					c-3.083-11.917-1.167-20.5-1.167-20.5L73.042,237.044z"/>
				<path style="fill:#EDC2A4;" d="M78.458,217.627l-10.417-2.083l-3.333,12.917c0,0-1.521-2.917-3.521-1.354s-1.5,7,0.813,7.125
					c0,0,2.375,7.813,11.125,6.875s9.938-6.563,9.5-9.188s-1.063-2.625-1-5.813S80.766,218.089,78.458,217.627z"/>
				<path style="fill:#ABABAB;" d="M64.708,228.46c0,0,9.209-0.408,14.438-10.538c5.229-10.129-14.709-11.817-22.271-1.442
					s-3.625,18.188-1.25,20.063s6.494,1.898,7.716,0.293c0,0-1.257-1.834-1.341-2.605c0,0-2.232-0.475-2.038-4.284
					C60.156,226.137,63.354,226.033,64.708,228.46z"/>
				<path style="fill:#ABABAB;" d="M67.017,211.169c0,0,1.641-4.25-1.313-6.938s-14.666,0.127-17.642,8.813
					c-2.313,6.75,4.469,8.195,6.641,6.91c2.172-1.285,0.297,0,0.297,0l8.812-4.41L67.017,211.169z"/>
				<path style="fill:#E7A6A3;" d="M71.792,241.184c-0.471,17.193,20.583,29.797,20.583,29.797c-6,7.021-14.667,37.646-31.5,48.479
					c-16.833,10.833-36.5-4.5-36.5-4.5c0.167-22,3.875-52.667,14.625-68.292s24.341-9.832,24.341-9.832
					S65.958,240.742,71.792,241.184z"/>
				<path style="fill:#EDC2A4;" d="M81.413,259.712c0.314-2.273,0.304-6.043-4.726-6.872c-0.75-0.124-2.044,0.399-2.458,1.037
					c-0.727,1.12-1.18,2.962,0.458,5.479c1.199,1.842,2.633,2.503,3.831,2.648C79.946,262.177,81.216,261.136,81.413,259.712z"/>
				<path style="fill:#E28884;" d="M72.875,352.419c0,0,4.25-4.875-3.917-6.042c-8.167-1.167-15.083,6.042-15.083,6.042H72.875z"/>
				<path style="fill:#A7D9D9;" d="M86.71,352.953c-0.037,0-0.075-0.001-0.112-0.004c-0.826-0.061-1.446-0.781-1.385-1.607
					l5.667-76.326c0.062-0.825,0.78-1.45,1.607-1.385c0.826,0.061,1.446,0.781,1.385,1.607l-5.666,76.326
					C88.146,352.352,87.488,352.953,86.71,352.953z"/>
				<path style="fill:#EDC2A4;" d="M92.375,270.981c0,0,2.125,1.25,4,1.5s2.25,2.938,1.938,4s-2.125,4.563-4.813,5
					s-0.5-4.75-0.5-4.75s-2.063,0.938-3.938-1.813L92.375,270.981z"/>
			</g>
		</g>
		<g>
			<ellipse style="opacity:0.2;fill:#345C6E;" cx="154.25" cy="353.419" rx="39.069" ry="3.99"/>
			<g>
				<path style="fill:#467C90;" d="M129.063,342.625l9.75,3.563c0,2.625,4.563,6.438,4.563,6.438
					c-10.813,1.625-15.563-3.313-15.563-3.313l-1.75,2.688h-1.687l-1.313-4.5L129.063,342.625z"/>
				<path style="fill:#467C90;" d="M169.875,342.625l9.75,3.563c0,2.625,4.563,6.438,4.563,6.438
					c-10.813,1.625-15.563-3.313-15.563-3.313l-1.75,2.688h-1.688l-1.313-4.5L169.875,342.625z"/>
				<path style="fill:#525252;" d="M142.088,172.771c0,0,8.203-5.5,15.12,1.5c6.917,7-3.75,21.917-1.417,25.25
					c2.333,3.333,8.833,2.167,8.667,5.583c-0.167,3.417-3.75,2.917-3.75,5.25s6.5,2.75,6.083,6.417c-0.417,3.667-4.333,1.25-4,4.25
					c0.333,3,9.583,4.5,4.583,12.667c-5,8.167-9.167,1.25-12.75,4.5s-2.417,4-10.5,4.417s-6.167-2.75-9.917-2.667
					c-3.75,0.083-7.25,4.083-11.333,0.833c-4.083-3.25,1.25-5,0.667-7.083c-0.583-2.083-12.583,0.333-12.333-8.25
					c0.25-8.583,7.333-7.167,7.417-10.25c0.083-3.083-12.917-0.667-11.917-6.917s10.917-3.75,11.583-6.25
					c0.667-2.5-7.583-2.978-5.25-7.364c2.333-4.386,9.167,0.697,11.917-4.386C127.708,185.187,124.135,168.104,142.088,172.771z"/>
				<path style="fill:#CCEDED;" d="M154.75,241.729C155.875,282.521,187,343.375,187,343.375s-6.917,6.25-17.25,5
					c-10.333-1.25-14.938-1.25-14.938-1.25c3.333-26.167-9.938-82.063-9.938-82.063c-12.375,20.625,5.875,82,5.875,82
					s-8.125-0.875-18.375,0.665c-10.25,1.54-21.25-2.165-21.25-2.165S126.25,282.937,126,272.019c-0.25-10.918,3-18.582,5.75-22.082
					s4.208-8.542,4.208-8.542L154.75,241.729z"/>
				
					<rect x="177.084" y="195.677" transform="matrix(0.9956 0.0942 -0.0942 0.9956 20.0029 -16.1989)" style="fill:#CCEDED;" width="8.916" height="16.093"/>
				<path style="fill:#E7A6A3;" d="M145.75,238.437l9,1.344c0.708,1.01,0,1.948,0,1.948c-6.458,1.042-18.792-0.333-18.792-0.333
					c-0.458-0.833,0.185-2.002,0.185-2.002L145.75,238.437z"/>
				<path style="fill:#EDC2A4;" d="M127.712,255.304c0,0,5.023,0.716,5.253,5.159c0.23,4.443,0.077,7.89-4.404,8.732
					c-4.481,0.843-5.668-3.064-5.285-5.285c0.383-2.221,3.511,1.724,4.437,1.762c0,0-1.871-2.26-0.76-4.979l-2.636-1.79
					L127.712,255.304z"/>
				<polygon style="fill:#E7A6A3;" points="124.955,253.013 120.906,253.013 120.155,257.432 123.937,259.812 128.55,254.924 				
					"/>
				<path style="fill:#EDC2A4;" d="M146.875,181.437c-5.083,5.208-10.656,0.656-11.719,9.438c0,0-0.781-1.625-2.313-0.938
					c-1.531,0.688-0.781,5.125,0.219,7.125s2.875,0.281,2.875,0.281s1.125,4.688-0.656,7.906c0,0,0.781,2.688,3.188,2.625
					c2.406-0.063,3.563-0.625,4.25-2.063c0,0-0.375-1.125-0.094-1.719c0,0,2.366,0.4,4.667-0.344
					C150.479,202.719,156.75,193.625,146.875,181.437z"/>
				<path style="fill:#E28884;" d="M142.719,205.812c0,0-2.07,1.865-4.427,1.292c-2.357-0.573-3.011-1.854-3.011-1.854l-2.364,1.429
					c0,0-0.917-0.492-2.542,0.175s-15.063,4.771-22,16.521c-6.698,11.344-4.191,30.32,7.014,34.823
					c0.813,0.327,1.715,0.392,2.556,0.144c1.447-0.428,3.876-1.483,6.234-4.046c1.574-1.711,1.251-4.426-0.634-5.786
					c-3.353-2.419-7.885-7.051-6.796-13.947c1.687-10.688,13-12.125,13-12.125s4.563,8,4.188,12.125s1.563,5.313,5.688,5.375
					s15.167,1.438,16.167-1s-1.417-4.646-0.667-9.333s1.042-10.479-3.833-14.167s-6.5-6.792-7.125-7.771L142.719,205.812z"/>
				<path style="fill:#E28884;" d="M143.639,206.991c0,0,0.986-1.07,3.486-0.312c2.5,0.758,8.167,5.175,11.667,12.508
					c3.206,6.717,15.011,9.449,17.805-0.129c0.58-1.988,2.666-3.171,4.655-2.598c0.919,0.265,1.983,0.669,3.183,1.278
					c1.472,0.747,2.329,2.337,2.088,3.971c-0.721,4.886-3.333,15.11-12.648,17.061c-10.535,2.207-16.267-4.16-18.857-8.297
					c-0.442-0.706-0.793-1.347-1.06-1.87l-12.667-14.083L143.639,206.991z"/>
				<g>
					<path style="fill:#E7A6A3;" d="M155.018,230.473c0.176-1.946,0.476-3.879,0.625-5.785c0.127-1.899,0-3.802-0.85-5.427
						c-0.394-0.831-0.967-1.541-1.611-2.253c-0.631-0.724-1.303-1.405-1.989-2.076c-1.348-1.328-3.035-2.487-4.068-4.184
						c1.33,1.441,3.076,2.305,4.586,3.6c0.769,0.62,1.477,1.312,2.166,2.016c0.68,0.706,1.353,1.52,1.809,2.446
						c0.953,1.866,1.025,4.019,0.731,5.96C156.127,226.733,155.573,228.601,155.018,230.473z"/>
				</g>
				<path style="fill:#E7A6A3;" d="M180.001,216.326l0.957-3.098l4.75,1.333l-0.796,3.465
					C184.912,218.027,182.377,216.528,180.001,216.326z"/>
				<path style="fill:#EDC2A4;" d="M185.259,214.436c-0.214-1.149,1.741-3.624,1.897-6.061c0.156-2.438-1.531-6.531-4.875-6.844
					c-3.344-0.313-5.844,4.219-3.875,3.875c1.969-0.344,3.531,1.781,2.813,3.75c-0.719,1.969-0.018,4.141-0.018,4.141
					L185.259,214.436z"/>
				<g>
					<path style="fill:#467C90;" d="M144.875,265.062c0.051-0.598,0.336-1.148,0.691-1.62c0.356-0.48,0.818-0.868,1.313-1.194
						c1.016-0.606,2.201-0.931,3.37-0.749c-0.505,0.32-0.997,0.556-1.471,0.813c-0.473,0.256-0.93,0.509-1.371,0.784
						C146.524,263.653,145.714,264.254,144.875,265.062z"/>
				</g>
				<g>
					<path style="fill:#467C90;" d="M146.143,251.484c-9.538,0-12.838-4.339-12.981-4.534c-0.327-0.445-0.231-1.071,0.214-1.397
						c0.444-0.325,1.065-0.232,1.393,0.208c0.061,0.079,3.364,4.208,13.052,3.678c0.559-0.032,1.023,0.395,1.052,0.945
						c0.03,0.552-0.393,1.023-0.945,1.053C147.311,251.469,146.715,251.484,146.143,251.484z"/>
					<g>
						<path style="fill:#467C90;" d="M164.125,253.013c1.529-4.358,0.313-8.201-5.063-7.888s-10.813,0.625-11.938,2.438
							s-2.229,8.063,1.792,9.313C152.938,258.125,162.125,258.714,164.125,253.013z"/>
						<path style="fill:#CCEDED;" d="M146.202,250.479c1.575,0.162,3.137,0.232,4.692,0.277c1.556,0.025,3.107-0.004,4.648-0.131
							c1.545-0.094,3.072-0.341,4.59-0.641c1.525-0.295,3.003-0.766,4.514-1.257c-1.335,0.839-2.777,1.58-4.318,2.012
							c-1.529,0.468-3.113,0.767-4.708,0.882C152.438,251.845,149.196,251.545,146.202,250.479z"/>
					</g>
				</g>
			</g>
		</g>
		<g>
			<ellipse style="opacity:0.2;fill:#345C6E;" cx="242.445" cy="353.419" rx="44.43" ry="3.99"/>
			<g>
				<path style="fill:#467C90;" d="M270.413,346.62c0,0,7.722-3.583,8.389,1.417c0.667,5,0,4.917,0,4.917h-23.5
					c0,0-0.667-4.5,1.583-8.333l9.642-0.583L270.413,346.62z"/>
				<path style="fill:#E28884;" d="M253.709,256.612l12.819,87.424l-10.652,4.5l-18.75-71.25c0,0-2.504,22.75-4.377,28.25
					c-1.873,5.5-13.095,41.083-13.095,41.083l-13.528-2c0,0,9.447-31.258,10.599-42.045c1.151-10.788,5.182-48.163,5.182-48.163
					S238.667,259.938,253.709,256.612z"/>
				<path style="fill:#A36E1E;" d="M241.875,183.349l7.681-8.41c8.056-7.847,2.069-16.403,2.069-16.403
					c0,1.75-1.669,3.375-1.669,3.375c0.643-2.25-1.831-4.313-1.831-4.313c-0.625,3.938-5.375,5.063-11.313,5.75
					s-11.75,3.438-13,13.313s8.183,14.071,8.183,14.071L241.875,183.349z"/>
				<path style="fill:#EDC2A4;" d="M247.938,170.786c0,0-1.25,2.25-7.063,3.438s-8.063,5.875-8.063,5.875s-0.063-3.25-2.063-3.25
					s-3.75,7.938,0,8.75c0,0,3,6.375-0.188,11.563c0,0,3.063,3.188,7,2.563s4.25-1.688,4.25-1.688s-1.813-0.813-1.75-4.063
					c0,0,5.375,1.25,7.875-4.063S250.813,174.661,247.938,170.786z"/>
				<path style="fill:#CCEDED;" d="M241.813,198.036c0,0,8.563,2.123,9.688,19.999s1.75,37.254,1.75,37.254s-15.125,8.503-27.25,0
					l4.563-58.128C230.563,197.161,235.875,201.036,241.813,198.036z"/>
				<path style="fill:#345C6E;" d="M230.563,197.161c0,0-4.604-3.208-8.854,0c-2.782,2.1-10.706,21.076-9.909,42.677l-0.057,0.032
					l-2.95,24.583c0,0,6.917,7.167,10.167,8.667l-0.434-5.575l0-0.01c1.119,2.238,2.393,4.439,3.85,6.585c0,0,5-2.833,7.375-7.583
					c0,0-3.5-6.5-3.75-8.5c0,0,7-12.25,8-32.5S233,198.911,230.563,197.161z"/>
				<path style="fill:#345C6E;" d="M260.875,260.411c0-27.282-9-51.563-9-51.563s9.75-3.313,13,5.5s-6.394,15.313-6.394,15.313
					c4.731-0.25,8.519,3.375,8.519,3.375s10.875-5.25,7.5-19.375s-15.644-15.667-22.875-16.125c-6.155-0.39-9.813,0.5-9.813,0.5
					c15.438,20.625,6.938,71.625,6.938,71.625S258.481,264.786,260.875,260.411z"/>
				<g>
					<path style="fill:#467C90;" d="M226,258.036c-1.077-2.747-1.863-5.6-2.524-8.476c-0.675-2.876-1.139-5.798-1.474-8.734
						c-0.177-1.467-0.263-2.944-0.376-4.417c-0.028-1.478-0.144-2.953-0.079-4.432c-0.003-2.954,0.268-5.905,0.702-8.817
						c0.026,1.478-0.092,2.941-0.029,4.411l0.008,2.198l0.087,2.196c0.128,2.925,0.334,5.844,0.679,8.75
						c0.307,2.91,0.74,5.805,1.231,8.694c0.244,1.445,0.522,2.884,0.823,4.32C225.328,255.172,225.661,256.602,226,258.036z"/>
				</g>
				<path style="fill:#467C90;" d="M219.653,346.62c0,0,7.722-3.583,8.389,1.417c0.667,5,0,4.917,0,4.917h-23.5
					c0,0-0.667-4.5,1.583-8.333L219.653,346.62z"/>
				<path style="fill:#EDC2A4;" d="M267,233.036c0.251,1.392-0.875,2.625-0.875,2.625l1.688-0.299c0,0,0.188,1.862-1.75,4.674
					s-11.625-0.625-11.938-4.625c-0.313-4,4.356-5.75,4.356-5.75S262.844,228.63,267,233.036z"/>
				<g>
					<path style="fill:#E7A6A3;" d="M263.125,237.224c0.508-0.319,1.002-0.553,1.492-0.808l0.739-0.369
						c0.252-0.121,0.49-0.263,0.769-0.385c-0.272,0.542-0.762,0.933-1.284,1.201C264.311,237.117,263.728,237.283,263.125,237.224z"
						/>
				</g>
				<path style="fill:#E28884;" d="M258.481,229.661c0,0,0.519-2.968,4.394-1.546s5.975,3.198,4.159,5.435
					C267.034,233.549,265.087,229.599,258.481,229.661z"/>
				<g>
					<path style="fill:#467C90;" d="M265.756,228.968c-0.142,0.801-1.618,1.208-3.295,0.91c-1.677-0.298-2.922-1.189-2.78-1.99
						c0.142-0.801,1.618-1.208,3.295-0.91C264.654,227.276,265.899,228.167,265.756,228.968z"/>
					<path style="fill:#CCEDED;" d="M265.357,228.693c-0.122,0.686-1.386,1.035-2.823,0.779c-1.438-0.256-2.504-1.019-2.382-1.705
						c0.122-0.686,1.386-1.035,2.824-0.78C264.412,227.243,265.479,228.007,265.357,228.693z"/>
					<path style="fill:#467C90;" d="M263.068,228.158c-0.014,0.077-0.156,0.116-0.317,0.087c-0.161-0.029-0.281-0.114-0.267-0.191
						c0.014-0.077,0.156-0.116,0.317-0.088C262.962,227.995,263.082,228.081,263.068,228.158z"/>
				</g>
			</g>
		</g>
		<g>
			<ellipse style="opacity:0.2;fill:#345C6E;" cx="329.697" cy="353.419" rx="39.069" ry="3.99"/>
			<g>
				<path style="fill:#CF8A86;" d="M335.083,256.64c-0.292,15.25,6.667,39.875,6.667,39.875c-4.75,2.125-20.106,2.125-20.106,2.125
					l2.105-33.5l7.059-7.351L335.083,256.64z"/>
				<path style="fill:#CCEDED;" d="M322.632,256.64l8.93,3.688l0.917,5.313c4.855,22.235,10.854,78.625,10.854,78.625
					c-2.667,3-8.396,2.188-8.396,2.188c1.75-12.333-11.188-62.229-11.188-62.229s-0.374,9.167-1.117,18
					c-0.742,8.833-4.591,44.167-4.591,44.167c-4.485,1.667-8.667-0.125-8.667-0.125l2.333-85.656L322.632,256.64z"/>
				<path style="fill:#467C90;" d="M341.986,262.063c1.111,0.922,1.097,1.869,1.097,1.869c-1.25,5.375-5.083,6.5-5.083,6.5
					c-2.625-1.208-0.908-6.549-0.908-6.549l3.616-1.82H341.986z"/>
				<path style="fill:#467C90;" d="M334.063,260.609l1.813,0.281l0.156,1.779c-2.906,6.404-6.594,6.189-6.594,6.189
					c-1.531-2.344,0.875-6.189,0.875-6.189L334.063,260.609z"/>
				<path style="fill:#E7A6A3;" d="M322.857,220.25c0,0,1.798-2.265,4.595,0c2.797,2.266,4.547,15.078,10.735,16.266
					s11.813-1.25,11.813-1.25l-1.688,8.125c0,0-10.188,5.938-18.875-3.563S322.857,220.25,322.857,220.25z"/>
				<path style="fill:#EDA342;" d="M328.604,197.28c0,0,2.959-1.734,2.021-5.723c-0.805-3.427-14.438-9.729-21.875,0.896
					s-0.889,19.958,7.305,21.167C316.055,213.62,322.07,199.06,328.604,197.28z"/>
				<path style="fill:#EDC2A4;" d="M321.625,193.974c-4.737,0.348-7.75,6.25-6.25,11.917c0,0-1.375-1.813-2.438-0.688
					s-0.25,6,2.375,5.688c0,0,1.75,4.938,0.875,7.875c0,0,2.313,4.5,7,2.875c0,0-0.938-2.375,0-5.188c0,0,3.938,1.938,6.375-3.563
					S331.563,193.245,321.625,193.974z"/>
				<path style="fill:#EDA342;" d="M310.5,190.349c0,0-2.875-4.05-10.458-4.05c-7.583,0-15.917,5.924-13.333,27.758
					c2.583,21.833,2.917,29.583-3.083,31.583c0,0,12.167,4.374,17.167-11.98s-6.38-44.192,7.287-40.192
					C308.079,193.469,309.951,190.886,310.5,190.349z"/>
				<path style="fill:#345C6E;" d="M307.812,194.531c-0.145,0-0.291-0.031-0.43-0.098c-0.499-0.238-0.71-0.835-0.472-1.333
					c0.139-0.29,1.4-2.865,3.043-3.938c0.464-0.301,1.082-0.172,1.384,0.29c0.303,0.462,0.172,1.082-0.29,1.384
					c-0.996,0.65-2.044,2.521-2.332,3.124C308.543,194.321,308.186,194.531,307.812,194.531z"/>
				<path style="fill:#345C6E;" d="M323.188,221.64c0,0,5.125,6.313,6.813,6.688s2.813,4.25,1.313,8.75s2.75,23.375,2.75,23.375
					s-5.75,4.688-17.125,1.438l-0.75-43.125C316.188,218.765,318.313,222.578,323.188,221.64z"/>
				<path style="fill:#E7A6A3;" d="M312.484,239.515l4.516,10l1.75,50.375c-6.5-0.75-16.375,1-16.375,1
					c7.333-18,4.437-58.5,4.437-58.5L312.484,239.515z"/>
				<path style="fill:#A7D9D9;" d="M341.167,234.39l7.99,5.938c0,0,0.719,2.172-0.837,3.127c-1.556,0.955-8.402,9.227-7.986,10.561
					c0.417,1.333,2,7.833,2,7.833s-3.159,2.083-6.017,2.083l-1.233-3.042c0,0-2.042,1.792-5.208,1.792
					c0,0-7.583-10.917-5.875-14.042c1.708-3.125,7.563-10.197,7.563-10.197L341.167,234.39z"/>
				<path style="fill:#E7A6A3;" d="M316.188,218.765c0,0-3.896-0.834-6.563,3.229c-2.667,4.063-6.333,14.23-1.75,25.063
					c4.583,10.833,22.833,16,41.333,5.083l-0.896-8.75c0,0-9.625,7.438-20.125,4.375s-11.125-7.938-9.875-14.125
					S321.563,220.265,316.188,218.765z"/>
				<g>
					<path style="fill:#E28884;" d="M307.875,247.057c0.515,1.009,1.104,1.936,1.756,2.809c0.66,0.863,1.358,1.692,2.161,2.411
						c0.791,0.728,1.63,1.414,2.552,1.996c0.904,0.616,1.885,1.109,2.879,1.668c-1.119-0.162-2.237-0.471-3.263-0.989
						c-1.053-0.473-1.99-1.175-2.851-1.945c-0.849-0.788-1.57-1.713-2.131-2.718C308.417,249.287,307.995,248.193,307.875,247.057z"
						/>
				</g>
				<path style="fill:#E28884;" d="M366.75,212.578c0,0-10.5,11.518-20.188,6.665s-10.246-15.728-10.246-15.728l-3.254,0.625
					c0,0-3.242,14.813,3.254,19.875c0,0-1.754,10.919-4.754,14.428c0,0,8.313,5.947,17.594,1.884c0,0,1.844-6.813,2.031-11.438
					c0,0,11.563,0.625,17.688-13.688L366.75,212.578z"/>
				<path style="fill:#EDA342;" d="M352.103,210.541l-1.614,6.887c0,0,4.999,1.952,7.707-3.204c2.708-5.155-1.458-9.165-2.708-9.946
					c-1.25-0.781-7.956-2.072-9.443,4.22L352.103,210.541z"/>
				<path style="fill:#EDC2A4;" d="M352.189,205.579c-3.434-1.042-6.284,1.909-7.325,5.659c-1.042,3.749,0.382,6.353,1.25,6.735
					c0,0-0.208,1.351-0.937,1.96c0,0,1.284,1.685,3.402,1.234c0,0,1.068-3.532,3.611-4.704c0,0,0.929,0.339,2.1-0.911
					s1.094-2.63,0-2.474C354.29,213.078,356.911,207.011,352.189,205.579z"/>
				<path style="fill:#EDA342;" d="M354.932,205.557h1.995c2.01-2.976,7.343-1.228,7.343-1.228c-0.174-2.777-4.34-2.152-4.34-2.152
					c0.833-1.423,3.853-1.215,3.853-1.215c-1.666-1.979-4.305-0.486-4.305-0.486c1.666-2.986-0.937-4.93-0.937-4.93
					c0.833,2.152-0.556,3.715-0.556,3.715c-0.59-3.68-3.541-3.715-3.541-3.715c2.361,4.444,0.179,8.383,0.179,8.383L354.932,205.557
					z"/>
				<path style="fill:#345C6E;" d="M357.207,206.39c-0.248,0-0.493-0.11-0.657-0.321c-0.83-1.063-2.227-1.535-2.241-1.539
					c-0.436-0.144-0.674-0.614-0.532-1.051c0.144-0.437,0.616-0.675,1.047-0.534c0.077,0.025,1.889,0.624,3.039,2.098
					c0.283,0.363,0.219,0.886-0.144,1.169C357.566,206.333,357.386,206.39,357.207,206.39z"/>
				<g>
					<path style="fill:#345C6E;" d="M335.083,260.89c-0.394-0.442-0.649-0.942-0.872-1.455c-0.205-0.52-0.377-1.054-0.41-1.646
						c0.395,0.442,0.65,0.942,0.872,1.455C334.878,259.765,335.05,260.299,335.083,260.89z"/>
				</g>
				<g>
					<path style="fill:#345C6E;" d="M331.563,248.414c0.424-0.914,1.019-1.72,1.682-2.465c0.343-0.363,0.694-0.721,1.094-1.026
						c0.396-0.308,0.816-0.595,1.286-0.782c-0.706,0.712-1.354,1.419-2.011,2.145C332.95,247.002,332.3,247.731,331.563,248.414z"/>
				</g>
				<path style="fill:#EDC2A4;" d="M336.316,203.515c1.723-2.031,0.621-4.68,0.621-4.68c-0.125,1.101-1.313,1.961-1.313,1.961
					c-0.969-0.094-1.563-4.531-1.563-4.531c-3.656,3.656-1,7.875-1,7.875L336.316,203.515z"/>
				<path style="fill:#EDC2A4;" d="M366.752,212.588c-0.003-2.663,2.548-3.974,2.548-3.974c-0.616,0.921-0.264,2.345-0.264,2.345
					c0.8,0.554,4.119-2.45,4.119-2.45c0.43,5.153-4.322,6.658-4.322,6.658L366.752,212.588z"/>
				<path style="fill:#EDC2A4;" d="M348.313,243.39l1.236-4.613c0,0,3.285,0.155,3.993,5.613c0.708,5.458-4.333,7.75-4.333,7.75
					L348.313,243.39z"/>
				<path style="fill:#E28884;" d="M317.223,346.557c0.723,1.042,2.277,1.021,6.152,0s4.25,6.396,4.25,6.396h-18.438
					c-0.75-4,1.312-6.396,1.312-6.396l3.5-0.604L317.223,346.557z"/>
				<path style="fill:#E28884;" d="M342.755,344.732c0.953,2.566,2.328,2.846,6.203,1.825s4.25,6.396,4.25,6.396h-18.438
					c-0.75-4,1.312-6.396,1.312-6.396l3.5-0.604L342.755,344.732z"/>
				<path style="fill:#E7A6A3;" d="M348.313,243.39c0.099-0.499,0.324-0.966,0.624-1.39c0.297-0.425,0.717-0.793,1.236-0.993
					c0.518-0.194,1.128-0.176,1.603,0.067c0.256,0.084,0.451,0.27,0.67,0.401c0.187,0.178,0.368,0.358,0.53,0.549
					c-0.453-0.23-0.873-0.48-1.327-0.586c-0.444-0.132-0.897-0.12-1.304,0.038C349.514,241.79,348.884,242.577,348.313,243.39z"/>
			</g>
		</g>
		<g>
			<ellipse style="opacity:0.2;fill:#345C6E;" cx="426.166" cy="353.419" rx="49.459" ry="3.99"/>
			<g>
				<path style="fill:#345C6E;" d="M447.017,255.557l11.887,9.375c7.863,9.208,1.471,57.292,1.471,57.292h-22.642v-57.292
					L447.017,255.557z"/>
				<path style="fill:#525252;" d="M445.808,177.672c0,0,12.507-9.438,18.523,0c0,0,8.457,4.554,1.22,13.276
					c-7.236,8.721,6.449,20.824,6.449,20.824s-8.303,8.584-18.857,4.292C442.589,211.772,431.225,201.41,445.808,177.672z"/>
				<path style="fill:#467C90;" d="M450.457,207.78c0,0-2.082,1.527-5.499-0.14c0,0-9.417,9.457-9.417,14.603
					s0.91,13.147,0.91,13.147l-0.91,29.542c0,0,10.667,4.208,24.833,0c0,0-5.251-36.5-1.542-51.437
					C458.833,213.495,455.622,207.087,450.457,207.78z"/>
				<polygon style="fill:#946360;" points="420.625,233.022 466.125,278.64 466.125,353.953 384.875,353.953 384.875,233.022 				
					"/>
				<path style="fill:#EDC2A4;" d="M455.183,178.138c0,0,3.377,1.407,5.629,6.403c2.252,4.996-2.181,7.81-2.181,7.81
					c2.392-0.985,3.589,1.9,1.548,4.785c-2.04,2.885-3.87,1.196-3.87,1.196c-3.94,3.377-3.588,9.358-3.588,9.358
					c-3.8,2.744-7.74,0-7.74,0c1.055-2.603,1.055-5.559,1.055-5.559s-4.714-2.252-5.066-7.951
					c-0.352-5.699,5.523-13.826,5.523-13.826L455.183,178.138z"/>
				<path style="fill:#A7D9D9;" d="M449.343,182.29l5.91,5.066c0,0-18.646,0.493-22.657-4.151
					c-4.011-4.644,12.454-4.151,12.454-4.151L449.343,182.29z"/>
				<path style="fill:#525252;" d="M461.111,176.397l1.794,11.504l-2.734,2.983c0,0-13.572-7.786-13.836-11.005l9.341-3.483H461.111
					z"/>
				<path style="fill:#467C90;" d="M464.963,193.337c-0.198,0-0.398-0.047-0.586-0.145c-0.641-0.335-15.753-8.271-20.503-13.884
					c-0.452-0.534-0.385-1.333,0.149-1.785c0.534-0.451,1.333-0.385,1.785,0.149c4.43,5.235,19.591,13.196,19.743,13.276
					c0.619,0.324,0.859,1.089,0.535,1.709C465.86,193.089,465.419,193.337,464.963,193.337z"/>
				<path style="fill:#467C90;" d="M454.75,206.557c-9.012-1.796-13.75,23.708-21.75,23.708s-9.5-15.96-9.5-15.96l-9.5,3.085
					c0,0,3.25,23.5,18.75,23.875S467.5,209.098,454.75,206.557z"/>
				<g>
					<path style="fill:#345C6E;" d="M436.285,240.819c1.286-0.449,2.505-1.041,3.663-1.731c1.178-0.652,2.283-1.427,3.347-2.244
						c2.12-1.648,4.048-3.526,5.799-5.558l1.288-1.548c0.419-0.524,0.79-1.087,1.195-1.624c0.84-1.054,1.493-2.236,2.26-3.348
						c0.731-1.135,1.349-2.338,2.036-3.507c0.637-1.195,1.219-2.42,1.877-3.618c-0.448,1.284-0.945,2.556-1.436,3.832
						c-0.603,1.223-1.152,2.481-1.813,3.68c-1.324,2.398-2.85,4.699-4.65,6.784c-1.813,2.066-3.822,3.985-6.108,5.527
						C441.467,238.991,438.977,240.298,436.285,240.819z"/>
				</g>
				<g>
					<path style="fill:#345C6E;" d="M435.868,229.168c1.222-1.49,2.281-3.082,3.337-4.669c1.038-1.6,2.034-3.225,2.977-4.882
						c0.965-1.644,1.858-3.331,2.758-5.019c0.443-0.844,0.881-1.699,1.37-2.543c0.511-0.826,1.031-1.643,1.646-2.39
						c-0.898,1.719-1.545,3.486-2.311,5.271c-0.764,1.773-1.632,3.503-2.596,5.18c-0.973,1.671-2.023,3.301-3.209,4.833
						C438.662,226.481,437.369,227.946,435.868,229.168z"/>
				</g>
				<path style="fill:#EDC2A4;" d="M420.86,215.163c0,0-0.923-2.46-0.36-6.253c0.563-3.793-2.813-5.77-2.813-5.77
					c0.438,1.875-0.313,3.326-0.313,3.326c-0.5-4.112-5.5-5.888-5.5-5.888c-2.938,6,0.25,11,2.438,12.688s1.567,3.515,1.567,3.515
					L420.86,215.163z"/>
				<polygon style="fill:#B3B3B3;" points="394.208,205.648 400.208,223.057 410.691,223.057 412.042,233.022 384.875,233.022 
					384.875,205.648 				"/>
			</g>
		</g>
	</g>
</g>
<g id="DESIGNED_BY_FREEPIK">
	<g>
		<g id="XMLID_319_">
			<g id="XMLID_338_">
				<path id="XMLID_346_" style="fill:#A5B7C6;" d="M260.104,454.106c-0.432,0.443-0.803,0.931-1.108,1.453l-0.465-0.241
					c-0.067-0.298-0.349-0.503-0.659-0.466c-0.331,0.039-0.568,0.339-0.529,0.67c0.039,0.331,0.339,0.568,0.67,0.529
					c0.066-0.008,0.127-0.026,0.184-0.052l0.451,0.234c-0.251,0.554-0.433,1.139-0.539,1.744l0.747,0.132
					c0.23-1.306,0.85-2.507,1.792-3.473L260.104,454.106z"/>
				<path id="XMLID_345_" style="fill:#A5B7C6;" d="M265.592,451.804c-0.171,0-0.341,0.006-0.51,0.017l-0.074-0.626
					c0.188-0.149,0.296-0.389,0.266-0.645c-0.046-0.393-0.402-0.674-0.795-0.628c-0.393,0.046-0.674,0.402-0.628,0.795
					c0.03,0.254,0.189,0.461,0.404,0.564l0.074,0.624c-0.714,0.116-1.403,0.332-2.06,0.646l0.327,0.684
					c0.934-0.447,1.942-0.673,2.995-0.673c0.496,0,0.993,0.053,1.475,0.158l0.161-0.741
					C266.692,451.862,266.142,451.804,265.592,451.804z"/>
				<path id="XMLID_344_" style="fill:#A5B7C6;" d="M272.194,454.351c0.331-0.04,0.566-0.341,0.526-0.672
					c-0.04-0.331-0.341-0.566-0.672-0.526c-0.309,0.038-0.535,0.304-0.53,0.609l-0.416,0.363c-0.418-0.43-0.889-0.813-1.408-1.139
					l-0.404,0.641c1.134,0.715,2.021,1.726,2.563,2.925l0.69-0.313c-0.251-0.554-0.567-1.072-0.942-1.545l0.402-0.351
					C272.065,454.356,272.129,454.359,272.194,454.351z"/>
				<path id="XMLID_343_" style="fill:#A5B7C6;" d="M265.044,462.012c-0.386,0.023-0.775,0.035-1.157,0.035
					c-0.88,0-1.733-0.061-2.478-0.179c-0.39-0.062-0.846-0.155-1.27-0.292c1.046,1.861,3.069,3.125,5.388,3.125
					c2.855,0,5.262-1.916,5.95-4.504c-0.682,0.449-1.505,0.825-2.459,1.123C267.839,461.687,266.463,461.927,265.044,462.012z"/>
				<path id="XMLID_339_" style="fill:#A5B7C6;" d="M265.592,453.32c-3.352,0-6.08,2.666-6.08,5.944
					c0,0.426,0.046,0.849,0.137,1.261c0.673,0.483,2.706,0.89,5.348,0.731c2.879-0.173,5.297-0.957,6.672-2.159
					c-0.006-0.195-0.021-0.39-0.045-0.582C271.244,455.553,268.65,453.32,265.592,453.32z M263.432,459.835
					c-1.02,0-1.85-0.83-1.85-1.85c0-1.02,0.83-1.85,1.85-1.85c1.02,0,1.85,0.83,1.85,1.85
					C265.282,459.005,264.452,459.835,263.432,459.835z M268.17,458.926c-0.75,0-1.36-0.61-1.36-1.36c0-0.75,0.61-1.361,1.36-1.361
					c0.75,0,1.361,0.61,1.361,1.361C269.53,458.316,268.92,458.926,268.17,458.926z"/>
			</g>
			<path id="XMLID_336_" style="fill:#A5B7C6;" d="M281.595,455.187c-0.295-0.116-0.805-0.309-1.382-0.237
				c-0.551,0.068-0.844,0.34-0.844,1.007v0.866h2.228v1.717h-2.228v5.455h-1.932v-5.455h-1.34v-1.717h1.34v-0.888
				c0-1.68,0.896-2.783,2.568-2.783c0.643,0,1.157,0.122,1.59,0.308L281.595,455.187z"/>
			<path id="XMLID_334_" style="fill:#A5B7C6;" d="M286.298,458.519c-0.177-0.03-0.358-0.046-0.526-0.046
				c-0.896,0-1.51,0.548-1.51,1.613v3.908h-1.932v-7.172h1.873v0.785c0.451-0.674,1.14-0.977,2.021-0.977
				c0.414,0,0.848,0.128,1.094,0.337L286.298,458.519z"/>
			<path id="XMLID_331_" style="fill:#A5B7C6;" d="M293.965,460.397c0,0.222-0.015,0.489-0.037,0.651h-5.085
				c0.207,1.036,0.933,1.488,1.843,1.488c0.622,0,1.295-0.252,1.813-0.688l1.133,1.243c-0.814,0.748-1.85,1.088-3.057,1.088
				c-2.198,0-3.723-1.495-3.723-3.753c0-2.257,1.48-3.797,3.627-3.797C292.544,456.63,293.958,458.162,293.965,460.397z
				 M288.851,459.731h3.175c-0.177-0.918-0.733-1.436-1.562-1.436C289.554,458.295,289.021,458.843,288.851,459.731z"/>
			<path id="XMLID_328_" style="fill:#A5B7C6;" d="M301.618,460.397c0,0.222-0.015,0.489-0.037,0.651h-5.085
				c0.207,1.036,0.932,1.488,1.843,1.488c0.622,0,1.295-0.252,1.814-0.688l1.132,1.243c-0.814,0.748-1.85,1.088-3.057,1.088
				c-2.198,0-3.723-1.495-3.723-3.753c0-2.257,1.48-3.797,3.627-3.797C300.197,456.63,301.611,458.162,301.618,460.397z
				 M296.504,459.731h3.175c-0.178-0.918-0.733-1.436-1.562-1.436C297.207,458.295,296.674,458.843,296.504,459.731z"/>
			<path id="XMLID_325_" style="fill:#A5B7C6;" d="M309.964,460.405c0,2.154-1.495,3.775-3.471,3.775
				c-0.962,0-1.643-0.378-2.109-0.933v3.708h-1.924v-10.133h1.887v0.792c0.466-0.585,1.155-0.984,2.139-0.984
				C308.469,456.63,309.964,458.251,309.964,460.405z M304.287,460.405c0,1.132,0.747,1.976,1.843,1.976
				c1.14,0,1.85-0.881,1.85-1.976c0-1.095-0.71-1.976-1.85-1.976C305.035,458.428,304.287,459.272,304.287,460.405z"/>
			<path id="XMLID_322_" style="fill:#A5B7C6;" d="M313.068,454.476c0,0.696-0.54,1.229-1.236,1.229
				c-0.696,0-1.229-0.533-1.229-1.229c0-0.696,0.533-1.243,1.229-1.243C312.527,453.233,313.068,453.78,313.068,454.476z
				 M312.809,463.994h-1.932v-7.172h1.932V463.994z"/>
			<path id="XMLID_320_" style="fill:#A5B7C6;" d="M316.032,459.376l2.701-2.554h2.368l-3.479,3.375l3.501,3.797h-2.376
				l-2.716-2.901v2.901H314.1v-10.658h1.932V459.376z"/>
		</g>
		<g>
			<path style="fill:#A5B7C6;" d="M184.412,463.929v-1.055c-0.527,0.718-1.391,1.23-2.388,1.23c-1.846,0-3.149-1.406-3.149-3.706
				c0-2.256,1.289-3.721,3.149-3.721c0.952,0,1.816,0.469,2.388,1.245v-3.765h1.099v9.77H184.412z M184.412,462.01v-3.208
				c-0.395-0.615-1.245-1.143-2.124-1.143c-1.421,0-2.27,1.172-2.27,2.739c0,1.567,0.85,2.724,2.27,2.724
				C183.168,463.124,184.017,462.626,184.412,462.01z"/>
			<path style="fill:#A5B7C6;" d="M186.932,460.385c0-2.051,1.465-3.706,3.486-3.706c2.139,0,3.398,1.67,3.398,3.794v0.279h-5.727
				c0.088,1.333,1.025,2.446,2.549,2.446c0.805,0,1.626-0.322,2.182-0.893l0.527,0.718c-0.703,0.703-1.655,1.084-2.812,1.084
				C188.44,464.105,186.932,462.596,186.932,460.385z M190.403,457.587c-1.509,0-2.256,1.274-2.314,2.358h4.643
				C192.718,458.89,192.015,457.587,190.403,457.587z"/>
			<path style="fill:#A5B7C6;" d="M194.607,462.992l0.571-0.791c0.469,0.542,1.362,1.011,2.329,1.011c1.084,0,1.67-0.513,1.67-1.216
				c0-1.714-4.38-0.659-4.38-3.281c0-1.098,0.952-2.036,2.636-2.036c1.201,0,2.051,0.454,2.622,1.026l-0.513,0.762
				c-0.424-0.513-1.201-0.894-2.109-0.894c-0.967,0-1.567,0.483-1.567,1.113c0,1.553,4.38,0.527,4.38,3.281
				c0,1.187-0.952,2.139-2.783,2.139C196.306,464.105,195.325,463.754,194.607,462.992z"/>
			<path style="fill:#A5B7C6;" d="M201.477,455.111c0-0.41,0.337-0.747,0.732-0.747c0.41,0,0.747,0.337,0.747,0.747
				c0,0.41-0.337,0.732-0.747,0.732C201.814,455.844,201.477,455.522,201.477,455.111z M201.667,463.929v-7.075h1.099v7.075H201.667
				z"/>
			<path style="fill:#A5B7C6;" d="M204.582,465.746l0.556-0.82c0.586,0.703,1.289,0.967,2.3,0.967c1.172,0,2.27-0.571,2.27-2.124
				v-1.011c-0.513,0.718-1.377,1.26-2.373,1.26c-1.845,0-3.149-1.377-3.149-3.662c0-2.27,1.289-3.677,3.149-3.677
				c0.952,0,1.802,0.469,2.373,1.245v-1.069h1.098v6.87c0,2.344-1.641,3.076-3.369,3.076
				C206.237,466.8,205.417,466.566,204.582,465.746z M209.709,461.893v-3.091c-0.381-0.615-1.23-1.143-2.109-1.143
				c-1.421,0-2.27,1.128-2.27,2.695c0,1.553,0.849,2.695,2.27,2.695C208.478,463.05,209.328,462.509,209.709,461.893z"/>
			<path style="fill:#A5B7C6;" d="M217.413,463.929V459.3c0-1.245-0.63-1.641-1.582-1.641c-0.865,0-1.685,0.527-2.095,1.099v5.17
				h-1.099v-7.075h1.099v1.025c0.498-0.586,1.465-1.201,2.519-1.201c1.48,0,2.256,0.747,2.256,2.285v4.966H217.413z"/>
			<path style="fill:#A5B7C6;" d="M219.932,460.385c0-2.051,1.465-3.706,3.486-3.706c2.139,0,3.398,1.67,3.398,3.794v0.279h-5.727
				c0.088,1.333,1.025,2.446,2.549,2.446c0.806,0,1.626-0.322,2.183-0.893l0.527,0.718c-0.703,0.703-1.655,1.084-2.812,1.084
				C221.441,464.105,219.932,462.596,219.932,460.385z M223.404,457.587c-1.509,0-2.256,1.274-2.314,2.358h4.643
				C225.718,458.89,225.015,457.587,223.404,457.587z"/>
			<path style="fill:#A5B7C6;" d="M233.35,463.929v-1.055c-0.527,0.718-1.392,1.23-2.388,1.23c-1.846,0-3.149-1.406-3.149-3.706
				c0-2.256,1.289-3.721,3.149-3.721c0.952,0,1.817,0.469,2.388,1.245v-3.765h1.098v9.77H233.35z M233.35,462.01v-3.208
				c-0.396-0.615-1.245-1.143-2.124-1.143c-1.421,0-2.27,1.172-2.27,2.739c0,1.567,0.849,2.724,2.27,2.724
				C232.105,463.124,232.954,462.626,233.35,462.01z"/>
			<path style="fill:#A5B7C6;" d="M239.692,463.929v-9.77h1.098v3.765c0.572-0.776,1.421-1.245,2.388-1.245
				c1.845,0,3.149,1.465,3.149,3.721c0,2.299-1.304,3.706-3.149,3.706c-0.996,0-1.86-0.513-2.388-1.23v1.055H239.692z
				 M242.9,463.124c1.436,0,2.285-1.157,2.285-2.724c0-1.568-0.85-2.739-2.285-2.739c-0.864,0-1.728,0.527-2.109,1.143v3.208
				C241.171,462.626,242.036,463.124,242.9,463.124z"/>
			<path style="fill:#A5B7C6;" d="M247.528,465.702c0.161,0.073,0.425,0.117,0.601,0.117c0.483,0,0.805-0.161,1.055-0.747
				l0.469-1.069l-2.959-7.148h1.187l2.358,5.801l2.344-5.801h1.201l-3.545,8.51c-0.425,1.025-1.143,1.421-2.08,1.435
				c-0.234,0-0.601-0.044-0.805-0.103L247.528,465.702z"/>
		</g>
	</g>
</g>
</svg>
