<?xml version="1.0" encoding="UTF-8"?>
<svg xmlns="http://www.w3.org/2000/svg" viewBox="0 0 2402.91 1752.75">
  <defs>
    <style>
      .cls-1 {
        fill: #ff424d;
      }

      .cls-2 {
        fill: #3aa1c9;
      }

      .cls-3 {
        fill: #f9956e;
      }

      .cls-4 {
        fill: #feefdc;
      }

      .cls-5 {
        fill: #ed7163;
      }

      .cls-6 {
        fill: #f9b59d;
      }

      .cls-7 {
        fill: #f7ab48;
      }

      .cls-8 {
        fill: #fdeacf;
      }

      .cls-9, .cls-10 {
        mix-blend-mode: multiply;
      }

      .cls-9, .cls-10, .cls-11, .cls-12, .cls-13 {
        fill: none;
      }

      .cls-9, .cls-13 {
        opacity: .3;
      }

      .cls-14 {
        fill: #fbfdfc;
      }

      .cls-15 {
        fill: #f07162;
      }

      .cls-16 {
        fill: #f39d75;
      }

      .cls-17 {
        fill: #ef3a4c;
      }

      .cls-18 {
        fill: #f7ba77;
      }

      .cls-19 {
        fill: #fe9f73;
      }

      .cls-20 {
        fill: #683d46;
      }

      .cls-10, .cls-12 {
        opacity: .5;
      }

      .cls-21 {
        fill: #472a31;
      }

      .cls-22 {
        fill: #8cd2f9;
      }

      .cls-23 {
        fill: #f99247;
      }

      .cls-11 {
        isolation: isolate;
      }

      .cls-24 {
        fill: #f3fffe;
      }

      .cls-25 {
        fill: #fec786;
      }

      .cls-26 {
        fill: #43a8bf;
      }

      .cls-27 {
        fill: #f75553;
      }

      .cls-28 {
        fill: #3aaaa4;
      }

      .cls-29 {
        fill: #f44d4d;
      }

      .cls-30 {
        fill: #7fc6a6;
      }

      .cls-31 {
        fill: #4c222e;
      }

      .cls-32 {
        fill: #995a47;
      }

      .cls-33 {
        fill: #8c3535;
      }

      .cls-34 {
        fill: #4cb7d8;
      }

      .cls-35 {
        fill: #21111d;
      }

      .cls-36 {
        fill: #f46e6e;
      }
    </style>
  </defs>
  <g class="cls-11">
    <g id="Layer_1" data-name="Layer 1">
      <g>
        <path class="cls-4" d="m536.65,1747.08l-169.76.97S-26.12,1589.17,1.38,1005.92C28.88,422.67,561.63,20.92,894.56,1.65c406.15-23.52,314.16,212.16,760.62,250.8,208.72,18.06,472.89,114.31,640.11,412.96,124.55,222.42,219.5,535.82-182.48,1081.67H536.65Z"/>
        <g class="cls-13">
          <g>
            <g class="cls-10">
              <path class="cls-7" d="m1463.27,692.86l-.25-94.82-.25-94.82-24.49-43.54v-4.62c-.03-5.67-4.63-10.25-10.3-10.23l-45.4.12h-3.22c-4.55.02-8.23,3.72-8.22,8.27v2.02s.02,4.62.02,4.62l-29.13,43.68.5,189.65,71.98-.19,48.76-.13Z"/>
            </g>
            <g class="cls-10">
              <path class="cls-7" d="m1628.75,692.86l-.25-94.82-.25-94.82-24.49-43.54v-4.62c-.03-5.67-4.63-10.25-10.3-10.23l-45.4.12h-3.22c-4.55.02-8.23,3.72-8.22,8.27v2.02s.02,4.62.02,4.62l-29.13,43.68.5,189.65,71.98-.19,48.75-.13Z"/>
            </g>
            <g class="cls-10">
              <path class="cls-7" d="m1794.23,692.86l-.25-94.82-.25-94.82-24.49-43.54v-4.62c-.03-5.67-4.63-10.25-10.3-10.23l-45.4.12h-3.22c-4.55.02-8.23,3.72-8.22,8.27v2.02s.02,4.62.02,4.62l-29.13,43.68.5,189.65,71.98-.19,48.75-.13Z"/>
            </g>
            <g class="cls-10">
              <path class="cls-7" d="m1959.72,692.86l-.25-94.82-.25-94.82-24.49-43.54v-4.62c-.03-5.67-4.63-10.25-10.3-10.23l-45.4.12h-3.22c-4.55.02-8.23,3.72-8.22,8.27v2.02s.02,4.62.02,4.62l-29.13,43.68.5,189.65,71.98-.19,48.76-.13Z"/>
            </g>
            <g class="cls-10">
              <path class="cls-7" d="m1103.54,693.18h-39.65v-180.53h-93.66v180.53h-119.05v-180.53h-93.66v180.53h-24.39v-180.53h-93.66v180.53h-25.14v-180.53h-93.66v180.53h-24.39v-180.53h-93.66v180.53h-15.5v-210.28h-15v1264.18h15v-291.97h716.43v179.44h-93.17v-84.36h8.11v-17.87h-175.58v17.87h8.11v84.36h-37.96v-84.36h8.11v-17.87h-175.58v17.87h8.11v84.36h-37.96v-84.36h8.11v-17.87h-175.58v17.87h8.11v84.36h-69.28v112.53h731.43V482.9h-15v210.28Zm-548.37,733.6h-9.83v8.33h-30v-8.33h-9.83v-130.86h9.83v-8.33h30v8.33h9.83v130.86Zm143.32,0h-9.83v8.33h-30v-8.33h-9.83v-130.86h9.83v-8.33h30v8.33h9.83v130.86Zm143.32,0h-9.83v8.33h-30v-8.33h-9.83v-130.86h9.83v-8.33h30v8.33h9.83v130.86Zm143.32,0h-9.83v8.33h-30v-8.33h-9.83v-130.86h9.83v-8.33h30v8.33h9.83v130.86Zm118.41,8.33h-14.92v-8.33h-9.83v-130.86h9.83v-8.33h-81.16v-8.34h-9.83v-130.86h9.83v-8.34h-113.32v8.34h9.83v130.86h-9.83v8.34h-27.17v-8.34h-9.83v-130.86h9.83v-8.34h-113.32v8.34h9.83v130.86h-9.83v8.34h-27.17v-8.34h-9.83v-130.86h9.83v-8.34h-113.32v8.34h9.83v130.86h-9.83v8.34h-27.17v-8.34h-9.83v-130.86h9.83v-8.34h-113.32v8.34h9.83v130.86h-9.83v8.34h-70.66v8.33h9.83v130.86h-9.83v8.33h-14.92v-350.97h716.43v350.97Zm0-370.97h-44.45v-5.93h1.43c7.66,0,13.89-6.23,13.89-13.89,0-.42-.35-.78-.8-.75.06-1.14.04,6.35.04-76.85,0-3.36-2.66-6.34-6.46-6.34,0-.42-.34-.76-.76-.76h-7.35v-3.32h10.79v-21.94c0-.42-.34-.76-.76-.76s-.76.34-.76.76h-100.52v20.42h0c-.42,0-.76.34-.76.76s.34.76.76.76h10.03v3.32h-7.35c-4.4,0-7.97,3.58-7.97,7.97v76.72c0,7.66,6.23,13.89,13.89,13.89h1.43v5.93h-58.78v-5.93h1.43c7.66,0,13.89-6.23,13.89-13.89,0-.42-.34-.78-.8-.75.06-1.13.04,6.4.04-76.85,0-3.36-2.65-6.34-6.46-6.34,0-.42-.34-.76-.76-.76h-7.35v-3.32h10.79v-21.94c0-.42-.34-.76-.76-.76s-.76.34-.76.76h-100.51v20.42h0c-.42,0-.76.34-.76.76s.34.76.76.76h10.03v3.32h-7.35c-4.4,0-7.97,3.58-7.97,7.97v76.72c0,7.66,6.23,13.89,13.89,13.89h1.43v5.93h-58.78v-5.93h1.43c7.66,0,13.89-6.23,13.89-13.89,0-.42-.35-.78-.8-.75.06-1.13.04,6.4.04-76.85,0-3.36-2.65-6.34-6.46-6.34,0-.42-.34-.76-.76-.76h-7.35v-3.32h10.79v-21.94c0-.42-.34-.76-.76-.76s-.76.34-.76.76h-100.51v20.42h0c-.42,0-.76.34-.76.76s.34.76.76.76h10.03v3.32h-7.35c-4.4,0-7.97,3.58-7.97,7.97v76.72c0,7.66,6.23,13.89,13.89,13.89h1.43v5.93h-58.78v-5.93h1.43c7.66,0,13.89-6.23,13.89-13.89,0-.42-.35-.78-.8-.75.06-1.13.04,6.23.04-76.85,0-3.36-2.65-6.34-6.46-6.34,0-.42-.34-.76-.76-.76h-7.35v-3.32h10.79v-21.94c0-.42-.34-.76-.76-.76s-.76.34-.76.76h-100.51v20.42h0c-.42,0-.76.34-.76.76s.34.76.76.76h10.03v3.32h-7.35c-4.4,0-7.97,3.58-7.97,7.97v76.72c0,7.66,6.23,13.89,13.89,13.89h1.43v5.93h-58.78v-5.93h1.43c7.66,0,13.89-6.23,13.89-13.89,0-.42-.34-.78-.8-.75.06-1.12.04,6.28.04-76.85,0-3.36-2.65-6.34-6.46-6.34,0-.42-.34-.76-.76-.76h-7.35v-3.32h10.79v-21.94c0-.42-.34-.76-.76-.76s-.76.34-.76.76h-100.51v20.42h0c-.42,0-.76.34-.76.76s.34.76.76.76h10.03v3.32h-7.35c-4.4,0-7.97,3.58-7.97,7.97v76.72c0,7.66,6.23,13.89,13.89,13.89h1.43v5.93h-30.83v-350.97h716.43v350.97Z"/>
            </g>
            <g class="cls-10">
              <path class="cls-7" d="m2032.43,482.9v210.28h-716.43v-210.28h-15v1264.18h746.43V482.9h-15Zm0,1151.64h-716.43v-179.44h716.43v179.44Zm0-199.44h-11.66v-180.53h-93.66v180.53h-26.8v-180.53h-93.66v180.53h-26.8v-180.53h-93.66v180.53h-24.39v-180.53h-93.66v180.53h-25.14v-180.53h-93.66v180.53h-24.39v-180.53h-93.66v180.53h-15.28v-350.97h716.43v350.97Zm-552.25-510.16v130.86h-9.83v8.34h-30v-8.34h-9.83v-130.86h9.83v-8.34h30v8.34h9.83Zm143.32,0v130.86h-9.83v8.34h-30v-8.34h-9.83v-130.86h9.83v-8.34h30v8.34h9.83Zm143.32,0v130.86h-9.83v8.34h-30v-8.34h-9.83v-130.86h9.83v-8.34h30v8.34h9.83Zm143.32,0v130.86h-9.83v8.34h-30v-8.34h-9.83v-130.86h9.83v-8.34h30v8.34h9.83Zm122.29,139.19h-18.8v-8.34h-9.83v-130.86h9.83v-8.34h-81.16v-8.33h-9.83v-130.86h9.83v-8.34h-113.32v8.34h9.83v130.86h-9.83v8.33h-27.17v-8.33h-9.83v-130.86h9.83v-8.34h-113.32v8.34h9.83v130.86h-9.83v8.33h-27.17v-8.33h-9.83v-130.86h9.83v-8.34h-113.32v8.34h9.83v130.86h-9.83v8.33h-27.17v-8.33h-9.83v-130.86h9.83v-8.34h-113.32v8.34h9.83v130.86h-9.83v8.33h-70.66v8.34h9.83v130.86h-9.83v8.34h-11.04v-350.97h716.43v350.97Z"/>
            </g>
            <g class="cls-10">
              <path class="cls-7" d="m569.95,927.68h1.43c7.66,0,13.89-6.23,13.89-13.89,0-.44-.38-.79-.8-.75.06-1.12.04,5.74.04-76.85,0-3.36-2.65-6.34-6.46-6.34,0-.42-.34-.76-.76-.76h-7.35v-3.32h10.79v-21.94c0-.42-.34-.76-.76-.76s-.76.34-.76.76h-100.51v20.42h0c-.42,0-.76.34-.76.76s.34.76.76.76h10.03v3.32h-7.35c-4.4,0-7.97,3.58-7.97,7.97v76.72c0,7.66,6.23,13.89,13.89,13.89h1.43v5.93h81.21v-5.93Z"/>
            </g>
            <g class="cls-10">
              <path class="cls-7" d="m710.43,927.68h1.43c7.66,0,13.89-6.23,13.89-13.89,0-.45-.38-.79-.8-.75.06-1.12.04,6.12.04-76.85,0-3.36-2.65-6.34-6.46-6.34,0-.42-.34-.76-.76-.76h-7.35v-3.32h10.79v-21.94c0-.42-.34-.76-.76-.76s-.76.34-.76.76h-100.51v20.42h0c-.42,0-.76.34-.76.76s.34.76.76.76h10.03v3.32h-7.35c-4.4,0-7.97,3.58-7.97,7.97v76.72c0,7.66,6.23,13.89,13.89,13.89h1.43v5.93h81.21v-5.93Z"/>
            </g>
            <g class="cls-10">
              <path class="cls-7" d="m850.92,927.68h1.43c7.66,0,13.89-6.23,13.89-13.89,0-.44-.38-.79-.8-.75.06-1.14.04,6.34.04-76.85,0-3.36-2.65-6.34-6.46-6.34,0-.42-.34-.76-.76-.76h-7.35v-3.32h10.79v-21.94c0-.42-.34-.76-.76-.76s-.76.34-.76.76h-100.51v20.42h0c-.42,0-.76.34-.76.76s.34.76.76.76h10.03v3.32h-7.35c-4.4,0-7.97,3.58-7.97,7.97v76.72c0,7.66,6.23,13.89,13.89,13.89h1.43v5.93h81.21v-5.93Z"/>
            </g>
            <g class="cls-10">
              <path class="cls-7" d="m991.41,927.68h1.43c7.66,0,13.89-6.23,13.89-13.89,0-.44-.38-.79-.8-.75.06-1.14.04,6.34.04-76.85,0-3.36-2.65-6.34-6.46-6.34,0-.42-.34-.76-.76-.76h-7.35v-3.32h10.79v-21.94c0-.42-.34-.76-.76-.76s-.76.34-.76.76h-100.51v20.42h0c-.42,0-.76.34-.76.76s.34.76.76.76h10.03v3.32h-7.35c-4.4,0-7.97,3.58-7.97,7.97v76.72c0,7.66,6.23,13.89,13.89,13.89h1.43v5.93h81.21v-5.93Z"/>
            </g>
          </g>
          <g class="cls-12">
            <g>
              <g>
                <g>
                  <circle class="cls-7" cx="458.53" cy="1005.99" r="23.48"/>
                  <circle class="cls-7" cx="598.52" cy="1005.99" r="23.48"/>
                  <circle class="cls-7" cx="738.51" cy="1005.99" r="23.48"/>
                  <circle class="cls-7" cx="878.5" cy="1005.99" r="23.48"/>
                  <circle class="cls-7" cx="1018.48" cy="1005.99" r="23.48"/>
                </g>
                <circle class="cls-7" cx="529.34" cy="875.95" r="23.48" transform="translate(-444.05 1192.17) rotate(-76.85)"/>
                <circle class="cls-7" cx="669.83" cy="875.95" r="23.48" transform="translate(-423.2 730.2) rotate(-45)"/>
                <circle class="cls-7" cx="810.32" cy="875.95" r="23.48" transform="translate(-382.05 829.54) rotate(-45)"/>
                <circle class="cls-7" cx="950.8" cy="875.95" r="23.48" transform="translate(-340.91 928.88) rotate(-45)"/>
              </g>
              <g>
                <rect class="cls-7" x="402.6" y="528.98" width="93.66" height="20.66"/>
                <rect class="cls-7" x="520.66" y="528.98" width="93.66" height="20.66"/>
                <rect class="cls-7" x="638.71" y="528.98" width="93.66" height="20.66"/>
                <rect class="cls-7" x="756.77" y="528.98" width="93.66" height="20.66"/>
                <rect class="cls-7" x="402.6" y="659.97" width="93.66" height="20.66"/>
                <rect class="cls-7" x="520.66" y="659.97" width="93.66" height="20.66"/>
                <rect class="cls-7" x="638.71" y="659.97" width="93.66" height="20.66"/>
                <rect class="cls-7" x="970.23" y="528.98" width="93.66" height="20.66"/>
                <rect class="cls-7" x="970.23" y="659.97" width="93.66" height="20.66"/>
                <rect class="cls-7" x="756.77" y="659.97" width="93.66" height="20.66"/>
              </g>
            </g>
            <g>
              <g>
                <circle class="cls-7" cx="1378.37" cy="1344.85" r="32.14" transform="translate(-169.9 2489.99) rotate(-80.78)"/>
                <circle class="cls-7" cx="1496.53" cy="1344.85" r="32.14" transform="translate(-70.66 2606.64) rotate(-80.78)"/>
                <circle class="cls-7" cx="1614.7" cy="1344.85" r="32.14" transform="translate(-65.15 2607.37) rotate(-76.72)"/>
                <circle class="cls-7" cx="1732.87" cy="1344.85" r="32.14" transform="translate(127.82 2839.92) rotate(-80.78)"/>
                <circle class="cls-7" cx="1851.04" cy="1344.85" r="32.14" transform="translate(-408.79 1702.78) rotate(-45)"/>
                <circle class="cls-7" cx="1969.21" cy="1344.85" r="32.14" transform="translate(326.3 3073.21) rotate(-80.78)"/>
              </g>
              <g>
                <rect class="cls-7" x="1336.86" y="958.94" width="93.66" height="58.66"/>
                <rect class="cls-7" x="1480.18" y="958.94" width="93.66" height="58.66"/>
                <rect class="cls-7" x="1623.5" y="958.94" width="93.66" height="58.66"/>
                <rect class="cls-7" x="1407.52" y="813.52" width="93.66" height="58.66"/>
                <rect class="cls-7" x="1548.01" y="813.52" width="93.66" height="58.66"/>
                <rect class="cls-7" x="1688.49" y="813.52" width="93.66" height="58.66"/>
                <rect class="cls-7" x="1828.98" y="813.52" width="93.66" height="58.66"/>
                <rect class="cls-7" x="1766.82" y="958.94" width="93.66" height="58.66"/>
                <rect class="cls-7" x="1910.14" y="958.94" width="93.66" height="58.66"/>
              </g>
            </g>
          </g>
        </g>
        <polygon class="cls-19" points="1422.14 1727.76 1360.53 1728.61 1359.65 1670.51 1421.01 1662.84 1422.14 1727.76"/>
        <g>
          <path class="cls-2" d="m1485.44,1738.22h-125.79v-25.31s9.15-12.15,23.08-5.95c0,0,20.62,14.93,39.2-2.91l46.57,20s16.94,5.57,16.94,14.17Z"/>
          <path class="cls-21" d="m1361.64,1738.22h129.26v8.86h-129.26c-1.1,0-1.99-.89-1.99-1.99v-4.87c0-1.1.89-1.99,1.99-1.99Z" transform="translate(2850.55 3485.3) rotate(180)"/>
          <path class="cls-22" d="m1435.72,1709.97c-4.22,6.59-12.69,19.83-18.08,28.25h-8.57c4.81-7.52,14.91-23.3,19.93-31.14l6.73,2.89Z"/>
          <path class="cls-22" d="m1431.38,1738.22h-8.57c3.92-6.12,11.56-18.06,16.97-26.51l6.73,2.89c-4.54,7.1-10.84,16.94-15.12,23.62Z"/>
        </g>
        <polygon class="cls-19" points="1316.07 1727.76 1254.46 1728.61 1253.58 1670.51 1314.95 1662.84 1316.07 1727.76"/>
        <path class="cls-26" d="m1322.63,1224.82c2.04,60,10.91,294.71,29.57,448.26,1.23,10.12,9.81,17.76,20,17.73,11.29-.03,26.99-1.38,44.39-6.69,8.41-2.57,14.25-10.22,14.39-19.01l7.58-467.24c.02-1.14-.06-2.27-.23-3.39l-.35-2.31c-1.95-12.72-15.16-20.38-27.17-15.77l-75.25,28.9c-8.03,3.08-13.22,10.9-12.93,19.5Z"/>
        <path class="cls-34" d="m1239.89,1212.72s-5.12,288.61,8.23,466.63c.63,8.43,7.32,15.08,15.75,15.73,11.93.91,30.09.77,50.57-4.66,6.94-1.84,12-7.84,12.62-15l35.72-413.9,21.99-114.92-144.88,66.12Z"/>
        <path class="cls-24" d="m1272.98,1695.49c-2.38-53.41,7.98-387.24,8.08-390.64l-10.87-.34c-.43,13.93-10.49,337.65-8.02,390.36.56.1,1.13.18,1.7.22,2.72.21,5.78.35,9.11.4Z"/>
        <path class="cls-24" d="m1377.45,1690.71c-1.75-64.77,8.13-383.07,8.23-386.39l-10.87-.34c-.42,13.59-10.01,322.17-8.18,386.06,1.77.51,3.64.78,5.57.77,1.65,0,3.41-.04,5.25-.11Z"/>
        <path class="cls-30" d="m1216.91,1120.87c1.26,11.53,8.16,182.57,27.35,196.69,19.19,14.11,202.81.55,207.09-16.12,4.28-16.67-20.65-195.42-20.65-195.42l-213.8,14.86Z"/>
        <path class="cls-30" d="m1424.25,1040.28c2.48.04,100.68,46.3,100.68,46.3l-21.4,37.75-55.51-14.18-23.77-69.86Z"/>
        <path class="cls-30" d="m1285.94,856.75s-42.33-2.93-62.95,7.84c-30.77,16.07-23.36,114.39-23.36,114.39,0,0,26.13-13.12,27.84-17.73,1.71-4.61,58.46-104.51,58.46-104.51Z"/>
        <path class="cls-30" d="m1244.66,863c24.2-2.51,87.83-2.65,87.83-2.65,0,0,8.34,2.5,5.7,1.16,69.76,14.78,75.74,67.09,75.74,67.09l29.13,151.54,38.05,3.36c11.54,23.8.33,86.54.33,86.54l-185.36,14.51s-40.14,5.22-72.42-39.22c-21.35-29.4-25.95-117.59-23.75-181.83,0,0,7.14-96.6,44.74-100.51Z"/>
        <path class="cls-35" d="m1299.47,1077.85c.21.09.44.11.68.07.63-.13,1.04-.74.92-1.37-.17-.83-16.67-83.52-23.12-135.42-.08-.64-.67-1.09-1.3-1.01-.64.08-1.09.66-1.01,1.3,6.46,51.99,22.98,134.76,23.15,135.59.08.4.35.7.7.85Z"/>
        <path class="cls-35" d="m1413.87,1079.8c-.19.17-.43.27-.71.29-.64.04-1.2-.45-1.23-1.1-.05-.96-5.56-96.1-11.13-127.6-.11-.64.31-1.24.95-1.35.63-.11,1.24.31,1.35.95,5.59,31.64,11.11,126.92,11.16,127.87.02.37-.13.71-.39.94Z"/>
        <path class="cls-35" d="m1427.89,1059.18c.52.22,1.13.03,1.44-.46l8.28-13.15-.09-.45-22.43-116.7c-.13-1.05-1.95-14.62-12.89-29.89-10.25-14.32-30.79-32.78-70.46-39.44-.64-.11-1.24.32-1.34.96-.11.63.32,1.24.96,1.34,38.81,6.52,58.88,24.47,68.87,38.39,10.83,15.08,12.53,28.82,12.55,28.95v.09s22.37,116.29,22.37,116.29l-7.79,12.37c-.34.54-.18,1.27.37,1.61.06.03.11.06.17.09Z"/>
        <g>
          <path class="cls-19" d="m1345.06,773.21l-.41,50.79s.55,16.33-13.76,18.26l2.49,21.81c.93,8.11-3.98,15.82-11.78,18.22-3.81,1.17-8.36,2.02-13.51,1.97-16.33-.13-25.07-12.45-26.38-18.58-1.31-6.13,3.01-35.35,3.01-35.35l-.38-14.38,2.31-55.68,58.41,12.96Z"/>
          <path class="cls-15" d="m1297.88,828.12s.74,27.34,34.84,30.22l-1.84-16.08s-22.17,4.27-33.01-14.14Z"/>
          <path class="cls-31" d="m1305.42,799.53c-.17,0-.34-.07-.47-.19-.27-.26-.27-.69-.01-.96.09-.1,9.53-9.59,18.02-2.63.29.24.33.67.1.96-.24.29-.67.33-.96.1-7.53-6.17-15.84,2.17-16.19,2.53-.13.14-.31.21-.49.21Z"/>
          <path class="cls-31" d="m1282.03,792.2l14.66,3.18,2.63,2.77s-1.07-24.63-3.8-29.49c-2.73-4.86-13.49,23.54-13.49,23.54Z"/>
          <path class="cls-31" d="m1333.5,795.68c-.19,0-.38-.08-.51-.24-.24-.29-.21-.71.08-.96.28-.24,6.81-5.73,10.89-2.18.28.25.31.68.07.96-.25.28-.68.31-.96.07-3.19-2.78-9.05,2.14-9.11,2.19-.13.11-.29.16-.45.16Z"/>
          <path class="cls-31" d="m1319.16,802.39c0,1.13-.93,2.03-2.06,2.02-1.13,0-2.03-.93-2.02-2.06,0-1.13.93-2.03,2.06-2.02,1.13,0,2.03.93,2.02,2.06Z"/>
          <path class="cls-31" d="m1340.87,800.53c0,1.13-.93,2.03-2.06,2.02s-2.03-.93-2.02-2.06.93-2.03,2.06-2.02c1.13,0,2.03.93,2.02,2.06Z"/>
          <path class="cls-19" d="m1302.3,801.55c-.06,6.76-5.58,12.2-12.35,12.15-6.76-.06-12.2-5.58-12.15-12.35.06-6.76,5.58-12.2,12.35-12.15,6.76.05,12.2,5.58,12.15,12.35Z"/>
          <path class="cls-15" d="m1287.86,808.23c-2.54-.02-4.23-1.95-4.77-3.86-.64-2.27.13-4.46,1.98-5.58,2.73-1.66,5.18-.56,6.43.28-.52-1.39-1.34-2.41-2.45-3.03-2.4-1.35-5.4-.4-5.43-.4-.18.06-.37-.04-.43-.22-.06-.18.04-.37.22-.43.13-.04,3.31-1.04,5.97.45,1.54.86,2.58,2.37,3.09,4.49l.29,1.19-.86-.87c-.12-.12-3.01-2.98-6.47-.87-1.92,1.17-2.1,3.32-1.68,4.81.44,1.55,1.78,3.35,4.12,3.37.02,0,.05,0,.07,0,.19,0,.34.15.34.34,0,.19-.15.34-.34.34-.02,0-.05,0-.07,0Z"/>
          <path class="cls-15" d="m1326.24,816.22c-.14,0-.27-.09-.32-.24-.06-.18.04-.37.22-.43l6.84-2.2-2.02-16.07c-.02-.19.11-.36.3-.38.19-.03.36.11.38.29l2.09,16.63-7.37,2.37s-.07.02-.11.02Z"/>
          <path class="cls-14" d="m1320.91,822.8c.21-.04,13.47-.24,13.47-.24,0,0-1.71,5.47-6.64,5.56s-6.83-5.32-6.83-5.32Z"/>
          <path class="cls-31" d="m1282.03,792.2s-3.94-23.88,3.43-32.71c7.37-8.83,49.4-24.04,54.44-19.56,5.04,4.49-.08,9.84-.08,9.84,0,0,16.87-5.26,20.55,9.69,3.69,14.95-32.55,21-54.08,13.84,0,0-14.31,4.05-24.27,18.89Z"/>
        </g>
        <path class="cls-35" d="m1268.41,1069.01s.1.04.15.05l30.93,8.2c.62.16,1.26-.21,1.43-.83s-.2-1.26-.83-1.43l-30.93-8.2c-.62-.16-1.26.21-1.43.83-.15.57.15,1.15.68,1.37Z"/>
        <path class="cls-35" d="m1469.16,1061.01c.59.24,1.26-.02,1.52-.61.26-.59,0-1.28-.6-1.54l-33.23-14.59c-.61-.24-1.28,0-1.54.6-.26.59,0,1.28.6,1.54l33.23,14.59s.01,0,.02,0Z"/>
        <g>
          <g>
            <rect class="cls-7" x="1499.5" y="1025.64" width="74.68" height="133.57" transform="translate(-82.95 127.26) rotate(-4.62)"/>
            <rect class="cls-23" x="1543.17" y="1023.88" width="30.94" height="133.57" transform="translate(-82.74 129) rotate(-4.62)"/>
            <path class="cls-7" d="m1552.55,1002.75l16.13,20.1-30.84,2.49s3.62-16.77,4.67-17.07c1.05-.3,10.04-5.52,10.04-5.52Z"/>
            <polygon class="cls-25" points="1537.84 1025.35 1552.55 1002.75 1512.15 1006.01 1494.25 1028.87 1537.84 1025.35"/>
            <path class="cls-18" d="m1521.79,993.31h20.22c5.61,0,10.16,4.55,10.16,10.16v.94h-40.54v-.94c0-5.61,4.55-10.16,10.16-10.16Z" transform="translate(-75.44 126.56) rotate(-4.62)"/>
            <g class="cls-9">
              <path class="cls-7" d="m1568.68,1022.85c-1.65.13-21.9-11.24-21.9-11.24l5.77-8.86,16.13,20.1Z"/>
            </g>
          </g>
          <path d="m1579.52,1157.08l-75.52,6.1-10.87-134.65,18.46-23.56,24.46-1.98c.6-.05,1.13.4,1.18,1,.05.6-.4,1.13-1,1.18l-23.5,1.9-17.34,22.14,10.63,131.62,73.35-5.92c.6-.05,1.13.4,1.18,1,.05.6-.4,1.13-1,1.18Z"/>
          <path d="m1568.77,1023.94l-74.44,6.01c-.6.05-1.13-.4-1.18-1s.4-1.13,1-1.18l74.44-6.01c.6-.05,1.13.4,1.18,1s-.4,1.13-1,1.18Z"/>
          <path d="m1512.23,1007.1c-.6.05-1.13-.4-1.18-1l-.37-4.54c-.05-.6.4-1.13,1-1.18s1.13.4,1.18,1l.37,4.54c.05.6-.4,1.13-1,1.18Z"/>
          <path d="m1544.12,1103c-.6.05-1.13-.4-1.18-1l-6.18-76.56c-.05-.6.4-1.13,1-1.18.6-.05,1.13.4,1.18,1l6.18,76.56c.05.6-.4,1.13-1,1.18Z"/>
          <path d="m1500.64,1051.71c-.17.01-.35-.01-.52-.09-.55-.24-.81-.88-.57-1.44l6.86-15.75c.24-.55.88-.81,1.44-.57.55.24.81.88.57,1.44l-6.86,15.75c-.17.38-.53.62-.91.65Z"/>
          <path d="m1502.74,1061.81c-.16.01-.33,0-.49-.07-.56-.22-.83-.86-.61-1.42l9.26-23.22c.22-.56.86-.83,1.42-.61.56.22.83.86.61,1.42l-9.26,23.22c-.16.4-.53.65-.93.68Z"/>
          <path d="m1571.15,1112.98c-.51.04-.99-.28-1.14-.79l-4.65-16.29c-.17-.58.17-1.18.75-1.35.58-.17,1.18.17,1.35.75l4.65,16.29c.17.58-.17,1.18-.75,1.35-.07.02-.14.03-.21.04Z"/>
          <path d="m1571.68,1119.61c-.47.04-.94-.24-1.11-.71l-4.25-11.4c-.21-.57.08-1.19.64-1.41.56-.21,1.19.08,1.41.64l4.25,11.4c.21.57-.08,1.19-.64,1.41-.1.04-.2.06-.3.07Z"/>
        </g>
        <path class="cls-6" d="m1553.96,1137.67c.11-3.01-2.48-5.63-5.49-5.84l-18.57-1.24c-.58-.04-1.08-.44-1.23-1.01h0c-.22-.83.37-1.66,1.23-1.72l27.49-1.82c3.15-.21,5.06-2.87,4.24-5.92h0c-.82-3.05-4.07-5.37-7.22-5.16l-28.04,1.86c-.65.04-1.24-.38-1.41-1.01l-.12-.45c-.2-.73.24-1.48.97-1.68l30.06-8.07c2.91-.78,4.94-3.86,4.25-6.79-.73-3.1-3.88-4.97-6.94-4.14l-30.29,8.13c-.73.2-1.48-.24-1.68-.97l-.38-1.42c-.18-.66.16-1.36.8-1.62l26.88-11.13c2.78-1.15,4.4-4.47,3.33-7.28-1.13-2.98-4.49-4.42-7.42-3.21,0,0-41.34,14.63-48.08,16.41l12.43-5.81c9.15,8.58-1.18-3.13-8.71-4.65-8.34-1.68-30.37,18.72-30.37,18.72-1.01,1.76.03,5.68,1.62,8.63,6.15,32.65,7.36,37.63,9.83,46.28l33.96-10.36c9.8-2.99,20.06-4.17,30.29-3.49l2.57.17c3.16.21,5.88-2.23,6-5.41Z"/>
        <path class="cls-30" d="m1481.12,1083.51s11.21,29.17.33,86.54l-10.89-41.22-18.15-26.84,28.71-18.48Z"/>
        <path class="cls-35" d="m1259.17,1077.52c.14.06.29.09.44.09,1.67,0,166.82.68,220.65,6.97,1.21,3.59,6.67,22.1,3.83,55.54-.05.64.42,1.21,1.06,1.26.64.05,1.21-.42,1.26-1.06,3.23-37.89-3.9-56.47-4.21-57.24l-.26-.65-.69-.08c-53.19-6.39-219.96-7.07-221.64-7.08-.64,0-1.17.52-1.17,1.16,0,.49.29.9.72,1.08Z"/>
        <path class="cls-35" d="m1326.52,1180.64c67.44,0,149.98-8.7,155.07-9.24.75-.08,1.29-.75,1.21-1.5s-.72-1.29-1.5-1.21c-1.84.2-184.52,19.46-230.4,1.47-45.35-17.78-48.51-117.69-48.54-118.7-.02-.75-.65-1.36-1.39-1.32-.75.02-1.34.64-1.32,1.39.11,4.19,3.24,102.72,50.27,121.16,15.12,5.93,44.11,7.95,76.61,7.95Z"/>
        <path class="cls-30" d="m1255.23,905.91l22.58-37.86,39.67,11.98,16.09-17.12s3.42,15.81,3.32,17.12c-.1,1.31-18.13,20.04-20.44,19.84-2.32-.2-61.22,6.04-61.22,6.04Z"/>
        <path class="cls-35" d="m1258.45,1322.95c.71,0,1.3-.55,1.35-1.26.05-.75-.51-1.4-1.26-1.45-19.05-1.36-21.66-17.56-26-44.39-.78-4.82-1.58-9.81-2.55-15.17-6.45-35.64-9.29-121.98-9.32-122.85-.02-.74-.63-1.32-1.36-1.32-.01,0-.03,0-.04,0-.75.02-1.34.65-1.32,1.4.03.87,2.87,87.41,9.36,123.25.97,5.34,1.77,10.31,2.55,15.12,4.39,27.19,7.29,45.16,28.49,46.67.03,0,.07,0,.1,0Z"/>
        <path class="cls-28" d="m1331.21,845.08l1.62,14.2s-9.82,14.73-16.54,19.44c-13.32-9.24-34.59-22.34-34.59-22.34l1.69-16.25c-24.73-2.82-52.73,12.21-46.28,20.22,6.44,8.01,39.94,10.47,48.83,13.38,8.77,2.88,31.18,9.68,31.18,9.68,5.89-4.37,21.71-22.96,21.71-22.96l16.01,4.44c.31-16.25-23.62-19.81-23.62-19.81Z"/>
        <g>
          <path class="cls-34" d="m1379.37,1738.22h-125.79v-25.31s9.15-12.15,23.08-5.95c0,0,20.62,14.93,39.2-2.91l46.57,20s16.94,5.57,16.94,14.17Z"/>
          <path class="cls-20" d="m1255.57,1738.22h129.26v8.86h-129.26c-1.1,0-1.99-.89-1.99-1.99v-4.87c0-1.1.89-1.99,1.99-1.99Z" transform="translate(2638.41 3485.3) rotate(180)"/>
          <path class="cls-22" d="m1329.65,1709.97c-4.22,6.59-12.69,19.83-18.08,28.25h-8.57c4.81-7.52,14.91-23.3,19.93-31.14l6.73,2.89Z"/>
          <path class="cls-22" d="m1325.31,1738.22h-8.57c3.92-6.12,11.56-18.06,16.97-26.51l6.73,2.89c-4.54,7.1-10.84,16.94-15.12,23.62Z"/>
        </g>
        <path class="cls-7" d="m1499.39,1079.02l1.08,13.4s10.97-3.15,10.82-3.61-9.7-9.79-9.7-9.79h-2.2Z"/>
        <g>
          <rect class="cls-28" x="1798.54" y="1143.47" width="53.42" height="308.92" transform="translate(318.6 -359.22) rotate(12.31)"/>
          <rect class="cls-30" x="1845.6" y="1168.01" width="184.27" height="308.92" transform="translate(326.41 -382.64) rotate(12.31)"/>
          <g class="cls-10">
            <path class="cls-2" d="m1832.07,1141.33l13.14,41.69s37.71-30.6,35.43-31.1c-2.29-.5-48.56-10.6-48.56-10.6Z"/>
          </g>
          <g class="cls-10">
            <rect class="cls-2" x="1793.54" y="1288.65" width="233.97" height="83.87" transform="translate(327.52 -376.65) rotate(12.31)"/>
          </g>
        </g>
        <path d="m1926.52,1479.04l-161.37-35.2,66.23-303.58,229.48,50.06c.49.11.79.59.69,1.07-.11.49-.59.79-1.07.69l-227.71-49.68-65.46,300.06,159.61,34.82c.49.11.79.59.69,1.07-.11.49-.59.79-1.07.69Z"/>
        <path d="m1858.2,1254.76c-.49-.11-.79-.59-.69-1.07l22.24-101.95c.11-.49.59-.79,1.07-.69s.79.59.69,1.07l-22.24,101.95c-.11.49-.59.79-1.07.69Z"/>
        <path d="m2029.75,1227.67c-.23-.05-.44-.19-.57-.4l-14.58-23.41c-.26-.42-.13-.98.29-1.24.42-.26.98-.13,1.24.29l14.58,23.41c.26.42.13.98-.29,1.24-.21.13-.45.16-.67.12Z"/>
        <path d="m2024.82,1237.71c-.23-.05-.44-.19-.57-.4l-10.53-16.87c-.26-.42-.14-.98.29-1.24.42-.26.98-.13,1.24.29l10.53,16.87c.26.42.14.98-.29,1.24-.21.13-.45.16-.67.12Z"/>
        <path class="cls-23" d="m1826.49,1105.44c-.31-.16-.66-.25-1.03-.25h-13.4c-.37,0-.72.1-1.03.25-21.07,2.65-37.61,26.51-37.61,55.48v47.87c0,1.27,1.03,2.3,2.3,2.3s2.3-1.03,2.3-2.3v-47.87c0-28.2,16.56-51.14,36.91-51.14h7.66c20.36,0,36.92,22.94,36.92,51.14v47.87c0,1.27,1.03,2.3,2.3,2.3s2.3-1.03,2.3-2.3v-47.87c0-28.96-16.54-52.83-37.61-55.48Z"/>
        <polygon class="cls-23" points="1924.35 1201.01 1826.79 1201.01 1822.43 1201.01 1724.87 1201.01 1699.12 1492.18 1822.43 1492.18 1826.79 1492.18 1950.1 1492.18 1924.35 1201.01"/>
        <polygon class="cls-25" points="1955.73 1201.01 1858.17 1201.01 1853.81 1201.01 1756.25 1201.01 1730.5 1492.18 1853.81 1492.18 1858.17 1492.18 1981.48 1492.18 1955.73 1201.01"/>
        <circle class="cls-8" cx="1855.99" cy="1346.6" r="63.97" transform="translate(-408.58 1706.79) rotate(-45)"/>
        <path d="m1890.93,1493.56h-193.32l25.88-292.67c.07-.76.75-1.32,1.49-1.25.76.07,1.32.74,1.25,1.49l-25.61,289.67h190.3c.76,0,1.38.62,1.38,1.38s-.62,1.38-1.38,1.38Z"/>
        <path d="m1743.38,1347.98s-.08,0-.12,0c-.76-.07-1.32-.74-1.25-1.49l12.99-146.84h117.43c.76,0,1.38.62,1.38,1.38s-.62,1.38-1.38,1.38h-114.9l-12.76,144.33c-.06.72-.67,1.26-1.37,1.26Z"/>
        <path class="cls-7" d="m1857.02,1105.44c-.31-.16-.66-.25-1.03-.25h-13.4c-.37,0-.72.1-1.03.25-21.07,2.65-37.61,26.51-37.61,55.48v47.87c0,1.27,1.03,2.3,2.3,2.3s2.3-1.03,2.3-2.3v-47.87c0-28.2,16.56-51.14,36.91-51.14h7.66c20.36,0,36.92,22.94,36.92,51.14v47.87c0,1.27,1.03,2.3,2.3,2.3s2.3-1.03,2.3-2.3v-47.87c0-28.96-16.54-52.83-37.61-55.48Z"/>
        <path d="m1902.23,1454.13c-.42,0-.83-.19-1.1-.55-.46-.61-.33-1.47.28-1.93l42.48-31.86c.61-.46,1.47-.33,1.93.28.46.61.33,1.47-.28,1.93l-42.48,31.86c-.25.19-.54.28-.83.28Z"/>
        <path d="m1932.87,1448.41c-.41,0-.81-.18-1.08-.52-.47-.6-.37-1.46.23-1.94l29.41-23.28c.6-.47,1.46-.37,1.94.23.47.6.37,1.46-.23,1.94l-29.41,23.28c-.25.2-.55.3-.85.3Z"/>
        <g>
          <path class="cls-35" d="m1565.77,1216.75c-.44.27-1.02.19-1.35-.22-.06-.07-6.19-7.37-14.44-11.32-.52-.25-.74-.87-.49-1.39.25-.52.87-.74,1.39-.49,8.67,4.15,14.88,11.55,15.14,11.87.37.44.31,1.1-.14,1.47-.04.03-.08.06-.12.08Z"/>
          <path class="cls-27" d="m1589.36,1201.22c-10.77-5.87-18.16-.18-21.02,4.89-2.32,4.1-5.14,6.54-6.12,7.32-1.13.54-4.56,1.99-9.27,2.27-5.81.33-14.18,4.45-13.66,16.71.52,12.25,28.87,38.9,42.14,32.55,0,0,3.74-2.33,5.12-3.19.55-.34,1.23-.81,2.01-1.33.07.01.13,0,.18-.04.63-.47,1.27-.9,1.91-1.3.64-.39,1.32-.78,2.01-1.13.06-.03.09-.08.11-.15.81-.47,1.53-.88,2.08-1.22,1.38-.86,5.12-3.19,5.12-3.19,11.55-9.11.15-46.3-10.62-52.17Z"/>
          <path class="cls-35" d="m1544.23,1232.57c-.47,0-.87-.34-.94-.82-.03-.24-.78-5.92,3.56-10.2.37-.37.98-.37,1.35,0,.37.37.37.98,0,1.35-3.66,3.61-3.01,8.53-3.01,8.58.07.52-.29,1-.81,1.08-.04,0-.09,0-.13,0Z"/>
          <path class="cls-35" d="m1546.58,1233.77c-.47,0-.87-.34-.94-.82-.03-.24-.78-5.92,3.56-10.2.37-.37.98-.37,1.35,0,.37.37.37.98,0,1.35-3.66,3.61-3.01,8.53-3.01,8.58.07.52-.29,1-.81,1.08-.04,0-.09,0-.13,0Z"/>
          <path class="cls-29" d="m1576.98,1199.21c-1.18,17.02-4.95,47.44-16.96,59.87,7.68,5.41,15.86,8.52,21.41,5.87,0,0,3.74-2.33,5.12-3.19.55-.34,1.23-.81,2.01-1.33.07.01.13,0,.18-.04.63-.47,1.27-.9,1.91-1.3.64-.39,1.32-.78,2.01-1.13.06-.03.09-.08.11-.15.81-.47,1.53-.88,2.08-1.22,1.38-.86,5.12-3.19,5.12-3.19,11.55-9.11.15-46.3-10.62-52.17-4.85-2.64-9.01-2.94-12.38-2.01Z"/>
          <path class="cls-36" d="m1586.16,1208.43c.06,1.66-2.71,3.09-6.18,3.21-3.47.12-6.33-1.13-6.38-2.79-.06-1.66,2.71-3.09,6.18-3.21,3.47-.12,6.33,1.13,6.38,2.79Z"/>
          <path class="cls-35" d="m1576.83,1266.87c-4.79,0-9.95-2.39-13.89-4.76-12.53-7.53-24.26-21.67-24.6-29.67-.56-13.28,8.88-17.37,14.55-17.7,4.48-.26,7.73-1.61,8.91-2.17.04-.02,2.4-1.15,4.26-4.64.25-.46.82-.64,1.29-.39.46.25.64.82.39,1.29-2.19,4.11-5.02,5.42-5.14,5.48-1.27.61-4.78,2.07-9.6,2.35-6.18.36-13.23,4.69-12.76,15.72.31,7.33,11.82,21,23.67,28.12,7.01,4.21,13.07,5.5,17.06,3.62l5.08-3.16c.44-.28,1.03-.14,1.31.31.28.45.14,1.03-.31,1.31l-5.21,3.24c-1.57.75-3.27,1.07-5.01,1.07Z"/>
        </g>
        <g>
          <path class="cls-35" d="m1625.24,1217.98c-.51-.03-.94-.43-.99-.95,0-.09-.88-9.58-5.41-17.53-.29-.5-.11-1.14.39-1.42.5-.29,1.14-.11,1.42.39,4.76,8.36,5.64,17.98,5.67,18.38.05.57-.38,1.08-.95,1.13-.05,0-.1,0-.14,0Z"/>
          <path class="cls-27" d="m1653.48,1218.67c-5.49-10.96-14.81-10.5-20.05-7.97-4.25,2.05-7.95,2.44-9.2,2.52-1.24-.2-4.89-.96-8.91-3.42-4.96-3.04-14.19-4.43-20.75,5.94-6.56,10.36,1.53,48.41,16.06,50.77,0,0,4.4.22,6.03.3.64.03,1.47.04,2.41.05.05.05.11.08.17.07.78-.03,1.56-.02,2.31.01.75.05,1.53.11,2.3.22.06,0,.12-.01.18-.06.93.08,1.76.15,2.4.19,1.62.08,6.03.3,6.03.3,14.69-.89,26.53-37.95,21.03-48.91Z"/>
          <path class="cls-35" d="m1599.07,1218.86c-.14,0-.29-.03-.43-.1-.47-.24-.66-.81-.42-1.28.11-.22,2.73-5.31,8.74-6.35.52-.09,1.01.26,1.1.78.09.52-.26,1.01-.78,1.1-5.04.87-7.34,5.29-7.36,5.33-.17.33-.5.52-.85.52Z"/>
          <path class="cls-35" d="m1600.31,1221.18c-.14,0-.29-.03-.43-.1-.47-.24-.66-.81-.42-1.28.11-.22,2.74-5.31,8.74-6.35.52-.09,1.01.26,1.1.78.09.52-.26,1.01-.78,1.1-5.04.87-7.34,5.29-7.36,5.33-.17.33-.5.52-.85.52Z"/>
          <path class="cls-29" d="m1644.46,1209.96c-10.68,13.31-31.12,36.15-48.07,39.51,3.22,8.83,8.17,16.05,14.24,17.03,0,0,4.4.22,6.03.3.64.03,1.47.04,2.41.05.05.05.11.08.17.07.78-.03,1.56-.02,2.31.01.75.05,1.53.11,2.3.22.06,0,.12-.01.18-.06.93.08,1.76.15,2.4.19,1.62.08,6.03.3,6.03.3,14.69-.89,26.53-37.95,21.03-48.91-2.47-4.93-5.72-7.55-9.02-8.71Z"/>
          <path class="cls-36" d="m1646.74,1222.77c-.9,1.39-3.99.99-6.91-.89-2.92-1.88-4.55-4.54-3.65-5.93.9-1.39,3.99-.99,6.91.89,2.92,1.88,4.55,4.54,3.65,5.93Z"/>
          <path class="cls-35" d="m1616.65,1267.75s-.03,0-.05,0l-6.13-.31c-6.43-1.04-10.85-8.09-13.43-13.81-6-13.33-7.56-31.64-3.28-38.4,7.11-11.23,17.2-9.2,22.05-6.24,3.83,2.34,7.26,3.09,8.56,3.3.04.01,2.62.43,6.15-1.39.46-.24,1.04-.06,1.28.41.24.47.06,1.04-.41,1.28-4.14,2.13-7.21,1.59-7.34,1.57-1.39-.22-5.11-1.03-9.23-3.55-5.28-3.23-13.54-3.7-19.45,5.63-3.93,6.2-2.27,23.99,3.41,36.6,3.36,7.46,7.6,11.97,11.95,12.71l5.97.3c.53.03.93.47.9,1-.03.51-.45.9-.95.9Z"/>
        </g>
        <g>
          <path class="cls-35" d="m1686.35,1215.14c-.46-.22-.7-.76-.54-1.26.03-.09,2.9-9.18,1.8-18.25-.07-.57.34-1.09.91-1.16.57-.07,1.09.34,1.16.91,1.16,9.55-1.76,18.76-1.88,19.15-.18.55-.76.85-1.31.67-.05-.01-.09-.03-.13-.05Z"/>
          <path class="cls-27" d="m1712.12,1226.71c-.83-12.24-9.6-15.41-15.41-15.11-4.71.25-8.28-.82-9.46-1.24-1.06-.66-4.13-2.78-6.89-6.6-3.4-4.72-11.37-9.57-21.43-2.55-10.06,7.02-17.31,45.24-4.83,53.02,0,0,3.98,1.91,5.44,2.61.58.28,1.34.6,2.2.98.03.07.07.11.13.14.73.28,1.44.59,2.12.91.68.33,1.36.69,2.04,1.09.05.03.12.04.19.02.83.43,1.56.82,2.14,1.1,1.47.7,5.44,2.61,5.44,2.61,13.89,4.86,39.14-24.73,38.32-36.97Z"/>
          <path class="cls-35" d="m1662.24,1205.91c-.27,0-.54-.11-.72-.33-.34-.4-.29-1,.11-1.34.18-.16,4.58-3.83,10.51-2.48.51.12.83.63.71,1.14-.12.51-.63.83-1.14.71-5.01-1.15-8.81,2.04-8.85,2.07-.18.15-.4.23-.62.23Z"/>
          <path class="cls-35" d="m1662.49,1208.53c-.27,0-.54-.11-.73-.34-.34-.4-.29-1,.11-1.34.18-.16,4.58-3.84,10.51-2.48.51.12.83.63.71,1.14-.12.51-.63.83-1.14.71-4.98-1.14-8.81,2.04-8.85,2.07-.18.15-.4.23-.62.23Z"/>
          <path class="cls-29" d="m1707.17,1215.18c-14.99,8.14-42.68,21.29-59.61,17.84-.44,9.39,1.33,17.96,6.54,21.21,0,0,3.98,1.91,5.44,2.61.58.28,1.34.6,2.2.98.03.07.07.11.13.14.73.28,1.44.59,2.12.91.68.33,1.36.69,2.04,1.09.05.03.12.04.19.02.83.43,1.56.82,2.14,1.1,1.47.7,5.44,2.61,5.44,2.61,13.89,4.86,39.14-24.73,38.32-36.97-.37-5.51-2.35-9.18-4.95-11.52Z"/>
          <path class="cls-36" d="m1704.31,1227.88c-1.37.94-4.07-.63-6.03-3.49-1.96-2.86-2.44-5.94-1.07-6.88s4.07.63,6.03,3.49c1.96,2.86,2.44,5.94,1.07,6.88Z"/>
          <path class="cls-35" d="m1659.54,1257.79c-.14,0-.28-.03-.41-.09l-5.53-2.66c-5.52-3.45-6.88-11.65-7.04-17.93-.38-14.62,5.26-32.1,11.83-36.68,10.9-7.6,19.43-1.83,22.75,2.78,2.7,3.75,5.75,5.81,6.62,6.35.04.02,2.26,1.41,6.2,1.1.52-.04.98.35,1.02.87.04.52-.35.98-.87,1.02-4.64.36-7.27-1.32-7.38-1.39-1.19-.74-4.31-2.92-7.14-6.84-3.62-5.02-11.06-8.65-20.11-2.33-6.02,4.2-11.37,21.24-11.02,35.07.21,8.18,2.38,13.98,6.1,16.34l5.39,2.59c.47.23.67.8.45,1.27-.16.34-.5.54-.86.54Z"/>
        </g>
        <g>
          <rect class="cls-32" x="1519.66" y="1244.82" width="209.51" height="256.01"/>
          <rect class="cls-33" x="1519.66" y="1244.82" width="52.38" height="256.01"/>
          <path class="cls-33" d="m1519.66,1244.82l17.25-17.25c4.93-4.93,12.94-4.93,17.87,0l17.25,17.25h-52.38Z"/>
          <path class="cls-32" d="m1572.04,1244.82l17.25-17.25c4.93-4.93,12.94-4.93,17.87,0l17.25,17.25h-52.38Z"/>
          <path class="cls-32" d="m1624.42,1244.82l17.25-17.25c4.93-4.93,12.94-4.93,17.87,0l17.25,17.25h-52.38Z"/>
          <path class="cls-32" d="m1676.8,1244.82l17.25-17.25c4.93-4.93,12.94-4.93,17.87,0l17.25,17.25h-52.38Z"/>
        </g>
        <path class="cls-22" d="m1527.39,1504.85h473.88l63.4-283.19-590.38-85.76-10.48-68.22-127.36-57.59-5.88,13.01,120.3,54.4,64.43,419.29-48.85,115.04c-3.34,7.88-2.52,16.84,2.21,23.97,4.72,7.12,12.63,11.36,21.17,11.36h.04c17.33-.03,41.86-.07,70.84-.12,264.2-.4,419.61-.35,426.38.13-.09,0-.15-.01-.2-.02l1.77-14.17c-4.54-.57-148.54-.64-427.97-.22-28.98.04-53.51.09-70.84.12h-.02c-3.79,0-7.17-1.81-9.26-4.97-2.1-3.17-2.45-6.99-.97-10.5l47.8-112.56Zm519.98-271.27l-57.54,256.99h-461.04l-52.23-339.91,570.81,82.92Z"/>
        <polygon class="cls-19" points="798.24 1684.12 752.71 1640.9 793.41 1597.91 843.61 1635.98 798.24 1684.12"/>
        <path class="cls-31" d="m836.95,1736.79l-91.73-89.51,18.01-18.46s15.32-2.35,21.06,12.09c0,0,4.41,25.56,30.66,25.77l19.73,47.72s8.39,16.11,2.26,22.39Z"/>
        <path class="cls-1" d="m724.93,1692.7h131.86v9.03h-131.86c-1.03,0-1.86-.83-1.86-1.86v-5.3c0-1.03.83-1.86,1.86-1.86Z" transform="translate(170.01 3463.62) rotate(-135.7)"/>
        <path class="cls-17" d="m1030.17,1081.2s-27.83,149.6-53.2,317.48c-73.36,70.72-149.75,146.96-206.79,210.27,0,0,15.84,36.76,64.19,58.46l119.5-102.3c-.07.6-.15,1.21-.22,1.81,32.83-26.2,117.69-92.04,148.4-116.45,4.83-3.84,8.16-9.23,9.44-15.26l21.99-322.73-103.3-31.27Z"/>
        <path class="cls-19" d="m1070.7,617.87l-6.9,61.19s-1.18,16.69-15.95,17.13l.29,30.83c.08,8.35-5.82,7.33-14.01,8.95-4.01.79-8.73,1.16-13.97.57-16.61-1.87-24.21-15.35-24.89-21.74-.68-6.39,6.83-35.69,6.83-35.69l1.14-14.68,8.29-56.46,59.17,9.91Z"/>
        <path class="cls-31" d="m1026.46,649.95c-.17-.02-.34-.1-.46-.25-.25-.3-.21-.73.09-.98.11-.09,10.73-8.75,18.64-.76.27.27.27.71,0,.98-.27.27-.71.27-.99,0-7.01-7.08-16.36.53-16.76.85-.15.13-.34.18-.52.16Z"/>
        <path class="cls-31" d="m1055.47,649.02c-.19-.02-.38-.12-.5-.3-.22-.32-.14-.75.18-.97.31-.21,7.55-5.11,11.32-1.06.26.28.25.72-.03.98-.28.26-.72.25-.98-.04-2.95-3.17-9.44,1.22-9.51,1.26-.14.1-.31.14-.47.12Z"/>
        <path class="cls-31" d="m1040.14,654.33c-.13,1.15-1.16,1.97-2.31,1.84-1.15-.13-1.97-1.16-1.84-2.31s1.16-1.97,2.31-1.84c1.15.13,1.97,1.16,1.84,2.31Z"/>
        <path class="cls-31" d="m1062.45,654.74c-.13,1.15-1.16,1.97-2.31,1.84s-1.97-1.16-1.84-2.31c.13-1.15,1.16-1.97,2.31-1.84s1.97,1.16,1.84,2.31Z"/>
        <path class="cls-31" d="m1014.64,604.06s-15.9-2.57-22.09,12.31c-6.2,14.88-1.11,23.61-1.47,28.22-.36,4.6-6.96,35.17,15.01,35.32l11.63-50.41-5.26-21.19,2.19-4.24Z"/>
        <path class="cls-19" d="m1023.07,651.67c-.78,6.88-6.98,11.83-13.87,11.05-6.88-.78-11.83-6.98-11.05-13.87.78-6.88,6.99-11.83,13.87-11.05,6.88.78,11.83,6.99,11.05,13.87Z"/>
        <path class="cls-15" d="m1008.83,657.8c-2.59-.29-4.1-2.43-4.45-4.44-.41-2.38.61-4.52,2.61-5.47,2.95-1.4,5.33-.02,6.52.97-.38-1.47-1.11-2.6-2.17-3.35-2.3-1.63-5.46-.99-5.49-.98-.19.04-.37-.08-.41-.27-.04-.19.08-.37.27-.41.14-.03,3.48-.71,6.03,1.09,1.47,1.04,2.37,2.69,2.67,4.9l.17,1.24-.78-.98c-.11-.14-2.75-3.35-6.5-1.58-2.07.98-2.49,3.16-2.22,4.72.28,1.62,1.46,3.6,3.84,3.87.02,0,.05,0,.07,0,.19.02.33.19.31.38-.02.19-.19.33-.38.31-.02,0-.05,0-.07,0Z"/>
        <path class="cls-15" d="m1015.74,678.27s-2.16,27.92,32.27,34.49l-.16-16.58s-23.04,1.98-32.11-17.92Z"/>
        <path class="cls-15" d="m1045.89,669.17c-.15-.02-.27-.12-.3-.27-.04-.19.08-.37.27-.41l7.2-1.51-.35-16.58c0-.19.15-.35.34-.36.19,0,.35.15.36.34l.36,17.16-7.76,1.63s-.07,0-.11,0Z"/>
        <path class="cls-14" d="m1039.75,675.3c.22-.02,13.75,1.19,13.75,1.19,0,0-2.32,5.39-7.35,4.95s-6.39-6.14-6.39-6.14Z"/>
        <path class="cls-31" d="m1014.34,617.07s35.58,22.02,60.55,4.44c24.97-17.58,20.03-22.4,11.1-23.2-8.93-.79-21.64-.36-30.44-5.7s-28.35-10.74-37.84-1.4c-9.49,9.35-17.86,14.34-3.36,25.86Z"/>
        <path class="cls-3" d="m1341.43,985.56l-123.57-47.13-32.9-115.7-27.94,22.65-41.3,24.19-24.11,9.31s32.28,108.04,62.27,129.13c29.99,21.08,187.54,29.5,187.54,29.5v-51.94Z"/>
        <path class="cls-7" d="m1138.53,739.79s35.55,27.72,58.95,101.42l13.78,42.55s-40.02,26.25-89.19,28.41c-49.17,2.16-42.15-124.18-34.55-141.72,7.6-17.55,24.78-43.28,24.78-43.28,0,0,17.54,4.25,26.23,12.63Z"/>
        <polygon class="cls-19" points="976.76 1727.07 913.99 1727.93 913.09 1668.73 975.61 1660.92 976.76 1727.07"/>
        <path class="cls-31" d="m1041.25,1737.72h-128.16v-25.79s9.32-12.38,23.52-6.06c0,0,21.01,15.22,39.94-2.97l47.45,20.37s17.26,5.67,17.26,14.44Z"/>
        <path class="cls-1" d="m914.95,1737.72h131.86v9.03h-131.86c-1.03,0-1.86-.83-1.86-1.86v-5.3c0-1.03.83-1.86,1.86-1.86Z" transform="translate(1959.9 3484.47) rotate(180)"/>
        <path class="cls-1" d="m907.14,1062.84s-16.79,387.08,1.99,615.16c0,0,35.67,22.47,84.58,3.02l48.03-451.62,36.23-95.73v-157.57l-170.84,86.74Z"/>
        <path d="m957.56,1689.79c-26.98,0-48.7-10.46-49.01-10.61l-.6-.29-.12-.65c-16.08-87-5.82-515.73-5.71-520.05.02-.72.61-1.29,1.32-1.29h.03c.73.02,1.31.62,1.29,1.35-.1,4.31-10.3,430.59,5.54,518.84,5.36,2.43,45.7,19.61,82.86,2.73.66-.3,1.45-.01,1.75.66.3.67,0,1.45-.66,1.75-12.34,5.61-25.02,7.57-36.7,7.57Z"/>
        <path class="cls-31" d="m890.01,922.69l-3.41,215.73s144.78,11,244.73-10.37c0,0-15.15-379.08-18.1-395.77-3.48-19.66-99.33-20.79-139.36-15.77,0,0-24.37-3.73-57.62,17.02l-26.24,189.16Z"/>
        <path class="cls-19" d="m836.6,1228.48c11.03,13.43,13.43-.16,13.43-.16,6.66,6.6,9.92,5.23,11.48,2.95,1.14-1.67,1.34-3.82.67-5.73-2.12-6.07-8.65-24.59-13.42-35.92.84-7.92,14.12-4.92,20.85-1.14,3.47,1.95,9.3,2.28,3.72-6.53-4.56-7.2-19.99-18.32-19.99-18.32l8.43-53.91-63.82,14.32s-1.04,50.5-1.25,58.11c-.21,7.61,7.58,33.38,14.01,41.3,11.67,14.38,12.59,5.62,12.59,5.62,13.52,13.8,13.29-.58,13.29-.58Z"/>
        <path class="cls-15" d="m840.53,1212.02c-.02-.39.21-.76.59-.9.47-.18,1,.06,1.18.54,2.47,6.64,8.45,16.08,8.51,16.17.27.43.14.99-.28,1.26-.43.27-.99.14-1.26-.28-.25-.39-6.14-9.7-8.68-16.52-.03-.09-.05-.19-.06-.28Z"/>
        <path class="cls-15" d="m828.95,1212.53c-.02-.43.27-.83.71-.93.49-.11.98.19,1.1.69,1.95,8.4,6.57,15.64,6.62,15.71.27.43.15.99-.27,1.26-.43.27-.99.15-1.26-.27-.2-.31-4.84-7.57-6.86-16.29-.01-.06-.02-.11-.02-.17Z"/>
        <path class="cls-15" d="m815.83,1215.14c-.02-.42.26-.81.68-.92.49-.13.99.16,1.12.65,1.89,7.2,6.38,13.61,6.42,13.67.29.41.19.98-.22,1.27-.41.29-.98.19-1.28-.22-.19-.27-4.73-6.75-6.7-14.27-.02-.06-.03-.13-.03-.19Z"/>
        <path d="m930.72,1686.61c-.72,0-1.31-.58-1.32-1.3l-2.32-155.28c-.01-.73.57-1.33,1.3-1.34h.02c.72,0,1.31.58,1.32,1.3l2.32,155.28c.01.73-.57,1.33-1.3,1.34h-.02Z"/>
        <path class="cls-19" d="m990.05,713.93s11.35,21.36,30.21,21.41c28.97.08,33.8-21.36,33.8-21.36l-32.01-1.48-32.01,1.43Z"/>
        <path class="cls-7" d="m888.48,847.61v307.68s79.09,15.36,117.46,0c0,0-.23-428.29-15.89-441.36-1.94.05-41.35.81-69.5,4.34-28.15,3.53-32.07,129.34-32.07,129.34Z"/>
        <path class="cls-7" d="m1053.61,713.93s7.93,384.24,15.76,441.36c0,0,31.93,2.2,72.65-12.46,0,0-7.33-400.85-17.84-411.55s-70.58-17.35-70.58-17.35Z"/>
        <path d="m1055.32,791c-.72,0-1.3-.57-1.32-1.29l-1.74-77.21,1.46.11c2.69.21,66.1,5.4,84.82,27.17.48.55.41,1.39-.14,1.86-.55.47-1.39.41-1.86-.14-16.5-19.18-71.85-25.21-81.57-26.13l1.68,74.27c.02.73-.56,1.33-1.29,1.35h-.03Z"/>
        <path d="m1005.94,1156.61h0c-.73,0-1.32-.6-1.32-1.32.65-272.68-6.81-367.45-6.88-368.37-.06-.73.48-1.37,1.21-1.42.71-.04,1.36.48,1.42,1.21.08.93,7.55,95.76,6.89,368.59,0,.73-.59,1.32-1.32,1.32Z"/>
        <path d="m1142.68,1144.04h-.03c-.73-.02-1.31-.62-1.29-1.35,2.58-119.39-18.41-377.58-18.62-380.17-.06-.73.48-1.37,1.21-1.42.77-.05,1.37.48,1.42,1.21.21,2.6,21.21,260.92,18.63,380.45-.02.72-.6,1.29-1.32,1.29Z"/>
        <path d="m888.48,943.16c-.73,0-1.32-.59-1.32-1.32v-62.48c0-.73.59-1.32,1.32-1.32s1.32.59,1.32,1.32v62.48c0,.73-.59,1.32-1.32,1.32Z"/>
        <path class="cls-19" d="m839.6,848.88s-25.51,87.34-28.92,96.81c-7.71,21.41-13.1,187.35-13.1,187.35l59.41,4.92,26.8-158.3,29.99-80.73-74.17-50.06Z"/>
        <path class="cls-7" d="m931.82,717.04s-25.08.65-42.02,14.74c-16.93,14.09-62.03,118.57-77.83,178.82l134.94,42.08-15.1-235.63Z"/>
        <path d="m898.8,908.14c-.13,0-.27-.02-.4-.06l-78.77-22.96c-.76-.22-1.19-1.01-.97-1.77.22-.76,1.02-1.19,1.77-.97l78.77,22.96c.76.22,1.19,1.01.97,1.77-.18.62-.75,1.03-1.37,1.03Z"/>
        <path class="cls-35" d="m892.56,750.19c.27,0,.54-.12.72-.36,8.67-11.55,22.83-16.25,22.97-16.3.47-.15.73-.66.58-1.13-.15-.47-.66-.73-1.13-.58-.6.19-14.84,4.91-23.85,16.93-.3.4-.22.96.18,1.26.16.12.35.18.54.18Z"/>
        <path class="cls-35" d="m894.25,758.49c.27,0,.54-.12.72-.36,8.67-11.55,22.83-16.25,22.97-16.3.47-.15.73-.66.58-1.13-.15-.47-.66-.73-1.13-.58-.6.19-14.84,4.91-23.85,16.93-.3.4-.22.96.18,1.26.16.12.35.18.54.18Z"/>
        <path d="m952.77,1164.1c-27.91,0-64.15-7.33-64.57-7.41-.77-.16-1.27-.91-1.11-1.68.16-.77.92-1.27,1.68-1.11.48.1,48.18,9.73,75.78,6.8.79-.09,1.49.48,1.57,1.27.08.78-.48,1.49-1.27,1.57-3.72.4-7.81.57-12.08.57Z"/>
        <path d="m910.29,942.75l-100.06-31.2.38-1.34c.26-.92,26.04-92.13,50.49-135.51,2.07-3.68,3.99-7.14,5.8-10.39,19.95-35.94,25.97-46.78,69.65-49.13.82-.02,1.46.56,1.5,1.35.04.79-.56,1.46-1.35,1.5-42.1,2.26-47.95,12.79-67.31,47.66-1.81,3.25-3.73,6.72-5.81,10.4-22.67,40.21-46.57,122.09-49.85,133.54l94.43,29.44c8.26-37.82,16.21-60.83,20.98-74.65.56-1.61,1.07-3.09,1.53-4.46.25-.75,1.06-1.15,1.81-.89.75.25,1.15,1.06.89,1.81-.47,1.38-.98,2.87-1.54,4.48-4.82,13.94-12.87,37.28-21.22,75.84l-.33,1.53Z"/>
        <path d="m926.05,879.46c-.41,0-.82-.18-1.1-.52-.5-.61-.42-1.51.19-2.01l10.57-8.76c.61-.5,1.51-.42,2.01.19.5.61.42,1.51-.19,2.01l-10.57,8.76c-.27.22-.59.33-.91.33Z"/>
        <path d="m1135.01,913.61c-.65,0-1.24-.45-1.39-1.11-.18-.77.3-1.53,1.07-1.71.47-.11,46.93-10.93,74.86-27.67l-18.45-56.15c-.25-.75.16-1.56.91-1.8.75-.25,1.56.16,1.8.91l19.16,58.3-.96.59c-28.21,17.32-76.2,28.5-76.68,28.61-.11.03-.22.04-.32.04Z"/>
        <path d="m1147.92,887.58c-.64,0-1.22-.43-1.38-1.07-.2-.76.26-1.54,1.03-1.74.38-.1,37.83-9.85,56.33-21.17.67-.41,1.55-.2,1.96.47.41.67.2,1.55-.47,1.96-18.87,11.55-55.56,21.1-57.11,21.5-.12.03-.24.05-.36.05Z"/>
        <path class="cls-6" d="m544.75,1230.46s62.67-77.51,79.15-83.82c16.48-6.31,0,82.42,0,82.42l-45.85,63.89-33.3-62.49Z"/>
        <g>
          <path class="cls-31" d="m630.42,1103.26s-7.93-9.39-19.31-8.62c-11.38.77-21.94,17.47-32.48,21.23,0,0,8.48,13.28,20.91,17.19,12.44,3.91,36.7-11.24,31.83-27.95l-.96-1.84Z"/>
          <path class="cls-31" d="m674.23,1059.64s7.27.18,12.77,7.56c5.5,7.38-3.74,59.73-20.23,60.13-24.64.6-7.36-59.03-7.36-59.03l14.82-8.66Z"/>
          <path class="cls-6" d="m682.29,1094.2c.38,12.63.79,31.58-13.6,35.35l-.36,28.63-32.1-7.5,2.3-91.78s9.05,1.18,9.05,1.93c0,.49,20.24,7.46,29.66,13.86,5.83,3.95,4.82,11.64,5.05,19.51Z"/>
          <path class="cls-5" d="m669.18,1109.92c-.13,0-.24-.09-.27-.22-.03-.15.07-.3.22-.33,1.8-.37,2.95-2.58,3.28-3.3-2.55-1.38-4.09-3.17-4.6-5.31-.82-3.49,1.41-6.63,1.51-6.76l.39-.06.06.39s-2.18,3.07-1.41,6.31c.48,2.04,2.01,3.74,4.54,5.06l.22.12-.09.23c-.06.14-1.35,3.37-3.79,3.87h-.06Z"/>
          <path class="cls-5" d="m668.65,1138.05l.06-8.74s-14.77-.98-23.8-6.76c0,0,12.22,11.92,23.74,15.5Z"/>
          <path class="cls-31" d="m662.22,1097.74c0,.86-.71,1.55-1.57,1.55-.86,0-1.55-.71-1.54-1.57,0-.86.71-1.55,1.57-1.55.86,0,1.55.71,1.55,1.57Z"/>
          <path class="cls-31" d="m677.96,1098.36c0,.86-.71,1.55-1.57,1.55-.86,0-1.55-.71-1.55-1.57,0-.86.71-1.55,1.57-1.55.86,0,1.55.71,1.55,1.57Z"/>
          <path class="cls-14" d="m657.06,1109.1c.17.04,10.14,4.44,10.14,4.44,0,0-3.15,3.5-6.86,1.87-3.71-1.62-3.28-6.31-3.28-6.31Z"/>
          <path class="cls-31" d="m655.87,1092.1c.16.07.35.07.52-.02.04-.02,4.07-2.33,8.04-.92.29.1.61-.05.71-.34.1-.29-.05-.61-.34-.71-4.47-1.59-8.79.9-8.97,1.01-.26.15-.35.49-.2.76l.24.22Z"/>
          <path class="cls-31" d="m679.72,1094.42c.18.02.36-.03.49-.18.21-.23.19-.58-.04-.78-.16-.14-3.87-3.48-8.57-2.85-.3.04-.52.32-.48.62.04.3.32.52.62.48,4.19-.56,7.64,2.53,7.67,2.57l.3.14Z"/>
          <polygon class="cls-16" points="667.81 1074.88 660.32 1067.69 665.87 1076.02 667.81 1074.88"/>
          <path class="cls-31" d="m681.72,1066.84c.38-3.55-1.67-8.89-5.22-9.22,0,0-36.66-8.57-48.41,3.73-13.09,13.71-15.02,37.92-6.19,53.52,5.09,8.98,14.93,11.88,14.93,11.88l4.29-41.26c1.17.64,29.81,4.67,36.6-5.62,2.08-3.15,3.44-7.76,4-13.04Z"/>
          <path class="cls-6" d="m645.06,1101.72c-.03,4.82-3.97,8.7-8.79,8.66-4.82-.04-8.7-3.97-8.66-8.79.03-4.82,3.97-8.7,8.79-8.66,4.82.04,8.7,3.97,8.66,8.79Z"/>
          <path class="cls-5" d="m635.65,1107.04c-1.83-.01-3.05-1.4-3.44-2.78-.46-1.63.09-3.21,1.42-4.02,1.89-1.15,3.6-.46,4.53.13-.37-.93-.94-1.62-1.69-2.04-1.7-.95-3.82-.28-3.84-.27-.15.05-.3-.03-.35-.18-.05-.15.03-.3.18-.35.1-.03,2.37-.75,4.29.32,1.11.62,1.85,1.7,2.22,3.22l.24.97-.71-.71c-.09-.09-2.13-2.1-4.57-.61-1.35.82-1.47,2.34-1.18,3.39.31,1.1,1.27,2.38,2.95,2.37.15,0,.28.12.28.28,0,.16-.12.28-.28.28h-.05Z"/>
        </g>
        <path class="cls-6" d="m555.24,1219.18c-13.59,5.49-71.49,121.87-71.49,121.87l29.07,15.18,77.7-91.67s-21.69-50.88-35.28-45.39Z"/>
        <path class="cls-6" d="m462.81,1375.81c1.23,1.26,3.26,1.28,4.6.13l8.33-7.11c.26-.22.64-.25.93-.08h0c.44.26.53.85.19,1.23l-10.81,12.03c-1.24,1.38-.95,3.28.65,4.23h0c1.59.95,3.91.59,5.15-.79l11.02-12.27c.26-.28.68-.35,1.01-.15l.23.14c.38.23.51.72.28,1.1l-9.33,15.73c-.9,1.51-.54,3.51.91,4.51,1.59,1.09,3.74.59,4.71-1.04l9.39-15.83c.23-.38.72-.51,1.1-.28l.74.44c.35.21.49.64.33,1.01l-6.74,15.72c-.69,1.62-.08,3.55,1.49,4.35,1.72.87,3.79.1,4.54-1.64,0,0,11.57-23.41,13.67-26.93l4.05,8.65c.45,1.77,2.25,2.84,4.02,2.38h0c1.77-.45,2.84-2.25,2.38-4.02l-2.83-21.09c-.29-1.15-2.34-2.37-4.22-2.96-15.96-11.2-18.51-12.79-23.1-15.42l-10.02,18.27c-2.89,5.27-6.72,9.97-11.3,13.88l-1.15.98c-1.44,1.23-1.57,3.44-.22,4.82Z"/>
        <polygon class="cls-6" points="590.52 1540.53 597.96 1724.38 646.49 1724.38 667.37 1540.53 590.52 1540.53"/>
        <path class="cls-6" d="m510.23,1472.64l-22.28,19.83-121.18,36.5-14.94,7.56,2.38,30.26,15.97,12.23s157.51-22.65,165.9-29.14c8.39-6.48,24.49-26.9,24.49-26.9,0,0,28.23-42.34,25.94-50.35-2.29-8.01-25.56-24.07-27.46-24.05-1.91.02-48.82,24.05-48.82,24.05Z"/>
        <path class="cls-34" d="m612.85,1746.4l67.32-1.06c.61-.1,1.1-.21,1.46-.32,6.31-2.04,3.64-9.24,3.64-9.24l-37.61-21.67-17.38,7.86s-28.5,4.76-32.58-3.32l.57,21.14s-2.08,6.77,14.58,6.61Z"/>
        <path class="cls-15" d="m499.69,1515.28c-.53,0-1.05-.29-1.31-.79l-10.82-20.74c-.38-.72-.1-1.62.63-1.99.72-.38,1.62-.1,1.99.63l10.82,20.74c.38.72.1,1.62-.63,1.99-.22.11-.45.17-.68.17Z"/>
        <path class="cls-34" d="m570.41,1290.5s-28.28,102.9-116.57,183.27c0,0,41.14,68.71,143.03,92.54,85.9,20.09,105.38,12.71,105.38,12.71l-4.25-267.07-127.59-21.44Z"/>
        <path class="cls-6" d="m663.65,1142.69l55.35,53.38-13.12,56.97-76.13-58.32-16.49-36s21.53-19.35,22.85-17.69c1.32,1.66,14.42-7.14,27.54,1.66Z"/>
        <path class="cls-34" d="m621.36,1161.03c2.41-7.46,6.48-12.52,10.4-15.88,4.61-3.95,10.51-6.05,16.57-6.15.04,0,.08,0,.11,0-25.89-3.43-37.72,25.69-37.72,25.69l-56.64,176.99c59.12,46.1,141.51,36.61,141.51,36.61,1.11-9.59,3.2-122.94,3.32-130.41-74.35-58.62-83.3-69.07-77.56-86.85Z"/>
        <g>
          <g class="cls-9">
            <path class="cls-34" d="m472.82,1497.38c2.63,2.76,5.55,5.67,8.76,8.68,35.44-35.41,62.68-82.99,79.96-118.51,20.93-43.02,32.21-78.17,32.32-78.52l-11.75-3.74c-.11.34-11.17,34.79-31.74,77.04-16.85,34.6-43.35,80.91-77.55,115.05Z"/>
          </g>
          <g class="cls-9">
            <path class="cls-34" d="m583.48,1426.66c20.65-56.67,33.93-107.3,34.06-107.8l-11.93-3.11c-.44,1.69-37.94,143.89-85.53,219.48,3.42,2.08,6.98,4.14,10.69,6.16,17.25-27.46,34.89-65.81,52.71-114.72Z"/>
          </g>
          <g class="cls-9">
            <path class="cls-34" d="m650.9,1328.5l-11.98-2.91c-.32,1.33-27.64,113.66-57.15,236.75,3.87,1.14,7.84,2.21,11.91,3.21,29.53-123.2,56.89-235.71,57.22-237.04Z"/>
          </g>
          <g class="cls-9">
            <path class="cls-34" d="m667.42,1461.59c9.06-66.98,12.94-125.49,12.98-126.07l-12.3-.81c-.12,1.81-9.63,143.09-33.68,239.5,4.32.79,8.4,1.49,12.22,2.1,7.68-30.92,14.63-69.23,20.78-114.73Z"/>
          </g>
        </g>
        <path class="cls-22" d="m568.13,1297.83s71.02,25.56,129.26,35.3l1.53.25-.32,9.79s-51.07.59-134.21-33.75l3.74-11.6Z"/>
        <path d="m698.29,1380.88s-.01,0-.02,0c-.49,0-.88-.4-.88-.89l1.29-152.6c0-.49.42-.89.89-.88.49,0,.88.4.88.89l-1.29,152.6c0,.48-.39.87-.87.88Z"/>
        <path class="cls-6" d="m659.97,1211.57s37.27,38.12,49.88,43.73c12.61,5.61,126.32-30.81,126.32-30.81l-17.91-24.78-88.16,5.37-38.86-35.67-31.28,42.16Z"/>
        <path d="m584.6,1249.46l-1.81-.58,25.19-78.7c5.76-18.02,11.8-22.77,19.7-27.52,9.92-5.97,23.53-6.58,30.45-3.72,9.95,4.11,38.73,34.34,39.95,35.63.36.38.35.98-.03,1.35-.38.37-.98.35-1.35-.03-.3-.31-29.73-31.23-39.3-35.18-5.66-2.33-18.79-2.39-28.74,3.6-7.54,4.53-13.31,9.08-18.87,26.47l-25.19,78.7Z"/>
        <path d="m678.78,1232.84c-.22,0-.45-.08-.63-.23l-47.12-41.05c-.4-.34-.44-.95-.09-1.34.35-.4.95-.44,1.34-.09l47.12,41.05c.4.34.44.95.09,1.34-.19.22-.45.33-.72.33Z"/>
        <path d="m640.81,1199.76h-12.36c-.53,0-.95-.43-.95-.95s.43-.95.95-.95h12.36c.53,0,.95.43.95.95s-.43.95-.95.95Z"/>
        <path d="m689.38,1580.18c-35.59,0-69.38-4.8-100.63-14.31-28.01-8.52-54.04-20.83-77.38-36.57-39.76-26.82-58.15-54.74-58.33-55.02l-.43-.66.56-.54c.45-.44,45.23-44.12,63.97-74.86.27-.45.86-.59,1.31-.32.45.27.59.86.32,1.31-17.71,29.04-58.39,69.46-63.7,74.67,2.98,4.31,21.32,29.54,57.44,53.89,36.42,24.55,98.88,53.17,189.7,50.29.51-.05.97.39.98.92.02.53-.4.97-.92.98-4.32.14-8.63.21-12.9.21Z"/>
        <path d="m659.32,1557.77c-.33,0-.66-.18-.83-.49-.26-.46-.09-1.04.37-1.29l29.27-16.29c.46-.26,1.04-.09,1.29.37.26.46.09,1.04-.37,1.3l-29.27,16.29c-.15.08-.31.12-.46.12Z"/>
        <path d="m673.96,1561.19c-.31,0-.61-.15-.8-.43-.29-.44-.17-1.03.27-1.32l23.43-15.4c.44-.29,1.03-.17,1.32.27.29.44.17,1.03-.27,1.32l-23.43,15.4c-.16.11-.34.16-.52.16Z"/>
        <g>
          <path class="cls-6" d="m861.35,1197.24c4.8-6.97-1.88-6.27-1.88-6.27,2.19-4.01,1.11-5.35-.17-5.77-.94-.31-1.97-.11-2.77.46-2.56,1.81-10.35,7.36-15.02,11.12-3.82.67-4.21-5.95-3.34-9.61.45-1.89-.18-4.66-3.56-.86-2.76,3.1-5.89,11.83-5.89,11.83l-21.42,3.22,10.33,28.04s23.79-6.31,27.38-7.24c3.59-.93,14.61-8.04,17.46-12.12,5.16-7.4.94-6.65.94-6.65,4.64-8.19-2.06-6.15-2.06-6.15Z"/>
          <path class="cls-15" d="m853.11,1197.62c-.18.06-.38,0-.5-.16-.15-.2-.1-.48.09-.62,2.78-2.05,6.39-6.12,6.43-6.16.16-.18.45-.2.63-.04.18.16.2.45.04.63-.15.17-3.72,4.18-6.57,6.29-.04.03-.08.05-.12.06Z"/>
          <path class="cls-15" d="m854.9,1202.97c-.2.07-.42-.02-.53-.21-.12-.22-.04-.49.17-.61,3.67-2.04,6.44-5.18,6.47-5.21.16-.19.44-.2.63-.04.19.16.2.44.04.63-.12.13-2.89,3.29-6.7,5.41-.02.01-.05.02-.08.03Z"/>
          <path class="cls-15" d="m857.89,1208.76c-.19.07-.42-.01-.52-.2-.13-.21-.06-.49.16-.61,3.12-1.85,5.52-4.82,5.54-4.85.15-.19.43-.22.63-.07.19.15.22.43.07.63-.1.13-2.52,3.12-5.78,5.06-.03.02-.06.03-.09.04Z"/>
        </g>
        <path d="m834.36,1668.84c-.2,0-.4-.04-.59-.13-49-22.2-64.76-58.84-64.92-59.21l-.36-.85.63-.67c.95-1.02,95.41-102.47,130.13-135.29.57-.54,1.48-.52,2.02.06.54.57.52,1.48-.06,2.02-33.13,31.32-120.89,125.38-129.35,134.46,2.62,5.49,19.23,37.02,63.08,56.88.72.33,1.04,1.17.71,1.89-.24.53-.76.84-1.3.84Z"/>
        <path d="m784.55,1632.07c-.36,0-.72-.14-1-.41-.56-.55-.57-1.46-.02-2.02l87.45-89.26c.55-.56,1.46-.57,2.02-.02.56.55.57,1.46.02,2.02l-87.45,89.26c-.28.29-.65.43-1.02.43Z"/>
        <path class="cls-3" d="m1297.76,968.9s38.07,15.54,43.68,16.66c5.61,1.12,41.06-7.16,49.29.32,8.23,7.48,16.43,39.52,15.02,43.16-.79,2.03-13.1,5.29-17.97,5.29s-32.36-15.66-32.36-15.66l-18.36,8.2-51.97-2.99,12.66-54.98Z"/>
        <circle class="cls-17" cx="1355.33" cy="1031.29" r="18.62"/>
        <path class="cls-22" d="m2040.91,1262.44l2.34-10.47h-31.69v-23.59l-10.47-1.52v25.11h-57.51v-33.47l-10.47-1.52v34.99h-57.51v-43.34l-10.47-1.52v44.86h-57.51v-53.22l-10.47-1.52v54.74h-57.51v-57.51h38.44l-72.09-10.47h-34.33v-4.99l-10.47-1.52v6.51h-57.51v-14.86l-10.47-1.52v16.38h-57.51v-24.74l-10.47-1.52v26.26h-43.56l1.61,10.47h41.95v57.51h-33.11l1.61,10.47h31.5v57.51h-22.66l1.61,10.47h21.05v57.51h-12.22l1.61,10.47h10.61v57.51h-1.77l1.61,10.47h.16v1.05l3.56,23.14h6.92v-24.19h57.51v24.19h10.47v-24.19h57.51v24.19h10.47v-24.19h57.51v24.19h10.47v-24.19h57.51v24.19h10.47v-24.19h57.51v24.19h10.47v-24.19h57.51v24.19h10.47v-24.19h51.66l2.34-10.47h-54.01v-57.51h57.51v41.87l11.72-52.34h-1.25v-57.51h14.12l2.34-10.47h-16.47v-57.51h29.34Zm-447.69,193.47h-57.51v-57.51h57.51v57.51Zm0-67.98h-57.51v-57.51h57.51v57.51Zm0-67.98h-57.51v-57.51h57.51v57.51Zm0-67.98h-57.51v-57.51h57.51v57.51Zm67.98,203.94h-57.51v-57.51h57.51v57.51Zm0-67.98h-57.51v-57.51h57.51v57.51Zm0-67.98h-57.51v-57.51h57.51v57.51Zm0-67.98h-57.51v-57.51h57.51v57.51Zm67.98,203.94h-57.51v-57.51h57.51v57.51Zm0-67.98h-57.51v-57.51h57.51v57.51Zm0-67.98h-57.51v-57.51h57.51v57.51Zm0-67.98h-57.51v-57.51h57.51v57.51Zm67.98,203.94h-57.51v-57.51h57.51v57.51Zm0-67.98h-57.51v-57.51h57.51v57.51Zm0-67.98h-57.51v-57.51h57.51v57.51Zm67.98,135.96h-57.51v-57.51h57.51v57.51Zm0-67.98h-57.51v-57.51h57.51v57.51Zm0-67.98h-57.51v-57.51h57.51v57.51Zm67.98,135.96h-57.51v-57.51h57.51v57.51Zm0-67.98h-57.51v-57.51h57.51v57.51Zm0-67.98h-57.51v-57.51h57.51v57.51Zm67.98,67.98h-57.51v-57.51h57.51v57.51Zm0-67.98h-57.51v-57.51h57.51v57.51Z"/>
        <circle class="cls-34" cx="1576.64" cy="1714.79" r="31.88"/>
        <circle class="cls-31" cx="1576.64" cy="1714.79" r="17.03"/>
        <path class="cls-22" d="m1536.41,1665.67s-1.23,15.87,15.73,24.49c16.97,8.62,16.97,16.97,16.97,16.97,0,0-1.64,12.86,7.66,13.14,9.3.27,9.85-11.77,9.03-21.62-.82-9.85-8.21-19.98-9.71-22.44-1.51-2.46-.55-10.54-.55-10.54h-39.13Z"/>
        <rect class="cls-34" x="1530.12" y="1658.15" width="48.71" height="11.22"/>
        <rect class="cls-22" x="1549.97" y="1632.68" width="7.55" height="25.46"/>
        <circle class="cls-34" cx="1969.21" cy="1714.79" r="31.88"/>
        <circle class="cls-31" cx="1969.21" cy="1714.79" r="17.03"/>
        <path class="cls-22" d="m1928.99,1665.67s-1.23,15.87,15.73,24.49c16.97,8.62,16.97,16.97,16.97,16.97,0,0-1.64,12.86,7.66,13.14,9.3.27,9.85-11.77,9.03-21.62-.82-9.85-8.21-19.98-9.71-22.44-1.51-2.46-.55-10.54-.55-10.54h-39.13Z"/>
        <rect class="cls-34" x="1922.69" y="1658.15" width="48.71" height="11.22"/>
        <rect class="cls-22" x="1942.54" y="1632.68" width="7.55" height="25.46"/>
        <path class="cls-34" d="m338.68,1543.5l-.45,67.32c.09.61.18,1.11.29,1.47,1.9,6.35,5.94,4.31,5.94,4.31l25.72-37.58-7.47-17.55s-4.12-28.6,4.05-32.49l-21.14.1s-6.73-2.23-6.94,14.43Z"/>
        <path class="cls-22" d="m338.24,1622.17h0c-2.53,0-4.58-2.05-4.58-4.58v-86.05c0-2.53,2.05-4.58,4.58-4.58h0c2.53,0,4.58,2.05,4.58,4.58v86.05c0,2.53-2.05,4.58-4.58,4.58Z"/>
        <path class="cls-22" d="m689.53,1741.83h0c0,2.53-2.05,4.58-4.58,4.58h-86.05c-2.53,0-4.58-2.05-4.58-4.58h0c0-2.53,2.05-4.58,4.58-4.58h86.05c2.53,0,4.58,2.05,4.58,4.58Z"/>
        <rect class="cls-31" x="340.23" y="1746.16" width="1786.97" height="6.59"/>
        <polygon points="2064.45 1223.14 1472.97 1137.22 1462.45 1068.72 1387.18 1035.69 1388.38 1032.95 1465.16 1066.63 1475.6 1134.57 2064.88 1220.18 2064.45 1223.14"/>
        <polygon points="1525.23 1253.47 1490.84 1253.47 1481.81 1194.69 1484.77 1194.23 1493.41 1250.47 1525.23 1250.47 1525.23 1253.47"/>
        <polygon points="1525.23 1321.45 1501.28 1321.45 1492.25 1262.67 1495.22 1262.21 1503.86 1318.45 1525.23 1318.45 1525.23 1321.45"/>
        <polygon points="1525.23 1389.43 1511.73 1389.43 1502.7 1330.65 1505.66 1330.19 1514.3 1386.43 1525.23 1386.43 1525.23 1389.43"/>
        <rect x="1517.55" y="1398.06" width="3" height="58.18" transform="translate(-199.14 247.27) rotate(-8.74)"/>
        <polygon points="1593.21 1492.07 1534.21 1492.07 1534.21 1466.38 1537.21 1466.38 1537.21 1489.07 1593.21 1489.07 1593.21 1492.07"/>
        <polygon points="1661.19 1492.07 1602.19 1492.07 1602.19 1466.38 1605.19 1466.38 1605.19 1489.07 1661.19 1489.07 1661.19 1492.07"/>
        <polygon points="1729.17 1492.07 1670.17 1492.07 1670.17 1466.38 1673.17 1466.38 1673.17 1489.07 1729.17 1489.07 1729.17 1492.07"/>
        <polygon points="1797.15 1492.07 1738.15 1492.07 1738.15 1466.38 1741.15 1466.38 1741.15 1489.07 1797.15 1489.07 1797.15 1492.07"/>
        <polygon points="1865.13 1492.07 1806.12 1492.07 1806.12 1466.38 1809.12 1466.38 1809.12 1489.07 1865.13 1489.07 1865.13 1492.07"/>
        <polygon points="1933.11 1492.07 1874.1 1492.07 1874.1 1466.38 1877.1 1466.38 1877.1 1489.07 1933.11 1489.07 1933.11 1492.07"/>
        <polygon points="1989.83 1492.07 1942.08 1492.07 1942.08 1466.38 1945.08 1466.38 1945.08 1489.07 1989.83 1489.07 1989.83 1492.07"/>
        <polygon points="1999.05 1456.23 1996.13 1455.58 1999.59 1440.1 1999.59 1398.4 2002.59 1398.4 2002.59 1440.43 1999.05 1456.23"/>
        <rect x="1989.78" y="1357.67" width="58.93" height="3" transform="translate(251.35 3032.27) rotate(-77.37)"/>
        <polygon points="2029.23 1321.45 2011.56 1321.45 2011.56 1318.45 2026.83 1318.45 2039.44 1262.11 2042.37 1262.77 2029.23 1321.45"/>
        <polygon points="2044.45 1253.47 2011.56 1253.47 2011.56 1250.47 2042.05 1250.47 2045.9 1233.25 2048.83 1233.91 2044.45 1253.47"/>
        <polygon points="1480.2 1184.21 1474.77 1148.88 1525.45 1156.24 1525.02 1159.21 1478.35 1152.43 1483.16 1183.76 1480.2 1184.21"/>
        <polygon points="1593.21 1253.47 1534.21 1253.47 1534.21 1194.46 1537.21 1194.46 1537.21 1250.47 1593.21 1250.47 1593.21 1253.47"/>
        <polygon points="1661.19 1253.47 1602.19 1253.47 1602.19 1194.46 1605.19 1194.46 1605.19 1250.47 1661.19 1250.47 1661.19 1253.47"/>
        <polygon points="1729.17 1253.47 1670.17 1253.47 1670.17 1194.46 1673.17 1194.46 1673.17 1250.47 1729.17 1250.47 1729.17 1253.47"/>
        <polygon points="1593.21 1321.45 1534.21 1321.45 1534.21 1260.38 1537.21 1260.38 1537.21 1318.45 1593.21 1318.45 1593.21 1321.45"/>
        <polygon points="1661.19 1321.45 1602.19 1321.45 1602.19 1262.44 1605.19 1262.44 1605.19 1318.45 1661.19 1318.45 1661.19 1321.45"/>
        <polygon points="1729.17 1321.45 1670.17 1321.45 1670.17 1262.44 1673.17 1262.44 1673.17 1318.45 1729.17 1318.45 1729.17 1321.45"/>
        <polygon points="1729.17 1389.43 1670.17 1389.43 1670.17 1330.42 1673.17 1330.42 1673.17 1386.43 1729.17 1386.43 1729.17 1389.43"/>
        <rect x="1602.19" y="1330.42" width="3" height="57.51"/>
        <rect x="1534.21" y="1330.42" width="3" height="57.51"/>
        <rect x="1602.19" y="1398.4" width="3" height="57.51"/>
        <rect x="1670.17" y="1398.4" width="3" height="57.51"/>
        <polygon points="1797.15 1457.41 1738.15 1457.41 1738.15 1398.4 1741.15 1398.4 1741.15 1454.41 1797.15 1454.41 1797.15 1457.41"/>
        <rect x="1806.12" y="1330.42" width="3" height="57.51"/>
        <rect x="1806.12" y="1262.44" width="3" height="57.51"/>
        <rect x="1739.65" y="1386.43" width="55.32" height="3"/>
        <rect x="1874.1" y="1262.44" width="3" height="57.51"/>
        <rect x="1874.1" y="1330.42" width="3" height="57.51"/>
        <rect x="1942.08" y="1262.44" width="3" height="57.51"/>
        <polygon points="1988.37 1647.34 1985.39 1646.96 1986.95 1634.49 1500.9 1636.05 1500.89 1633.05 1990.35 1631.47 1988.37 1647.34"/>
        <polygon points="2002.47 1506.35 1527.39 1506.35 1527.39 1503.35 2000.06 1503.35 2029.38 1372.49 2032.31 1373.15 2002.47 1506.35"/>
        <rect x="1428.38" y="1552.81" width="124.98" height="3" transform="translate(-522.32 2319.58) rotate(-67.01)"/>
        <rect x="1476.3" y="1558.62" width="55.22" height="3" transform="translate(-519.72 2335.15) rotate(-67.01)"/>
      </g>
    </g>
  </g>
</svg>